<?xml version="1.0" encoding="UTF-8" standalone="no"?>
<!-- Created with Inkscape (http://www.inkscape.org/) -->

<svg
   xmlns:dc="http://purl.org/dc/elements/1.1/"
   xmlns:cc="http://creativecommons.org/ns#"
   xmlns:rdf="http://www.w3.org/1999/02/22-rdf-syntax-ns#"
   xmlns:svg="http://www.w3.org/2000/svg"
   xmlns="http://www.w3.org/2000/svg"
   xmlns:sodipodi="http://sodipodi.sourceforge.net/DTD/sodipodi-0.dtd"
   xmlns:inkscape="http://www.inkscape.org/namespaces/inkscape"
   width="0.33333334in"
   height="0.66667002in"
   viewBox="0 0 8.4666669 16.933419"
   version="1.1"
   id="svg4849"
   inkscape:version="0.92.1 r15371"
   sodipodi:docname="car2.svg">
  <defs
     id="defs4843" />
  <sodipodi:namedview
     id="base"
     pagecolor="#ffffff"
     bordercolor="#666666"
     borderopacity="1.0"
     inkscape:pageopacity="0.0"
     inkscape:pageshadow="2"
     inkscape:zoom="7.919596"
     inkscape:cx="33.953979"
     inkscape:cy="33.445871"
     inkscape:document-units="mm"
     inkscape:current-layer="layer1"
     showgrid="false"
     inkscape:window-width="1920"
     inkscape:window-height="1019"
     inkscape:window-x="0"
     inkscape:window-y="26"
     inkscape:window-maximized="1"
     inkscape:snap-global="false"
     units="in" />
  <metadata
     id="metadata4846">
    <rdf:RDF>
      <cc:Work
         rdf:about="">
        <dc:format>image/svg+xml</dc:format>
        <dc:type
           rdf:resource="http://purl.org/dc/dcmitype/StillImage" />
        <dc:title></dc:title>
      </cc:Work>
    </rdf:RDF>
  </metadata>
  <g
     inkscape:label="Calque 1"
     inkscape:groupmode="layer"
     id="layer1"
     transform="translate(0,-280.06659)">
    <g
       id="g4569"
       transform="matrix(0.87754093,0,0,0.87754093,-8.5237559,35.32303)">
      <path
         inkscape:connector-curvature="0"
         id="path72"
         style="fill:#bee71e;fill-opacity:1;fill-rule:nonzero;stroke:none;stroke-width:0.01023236"
         d="m 17.195581,297.22899 v 0 c -1.74206,0.4626 -3.574574,0.4626 -5.316634,0 v 0 c -0.531469,-0.14111 -0.901573,-0.62223 -0.901573,-1.17222 v -14.38701 c 0,-0.74492 0.453703,-1.41462 1.145513,-1.6909 v 0 c 1.550101,-0.61906 3.278756,-0.61906 4.828857,0 v 0 c 0.691708,0.27628 1.14541,0.94598 1.14541,1.6909 v 14.38701 c 0,0.54999 -0.370002,1.03111 -0.901573,1.17222" />
      <path
         inkscape:connector-curvature="0"
         id="path74"
         style="fill:#de7ec7;fill-opacity:1;fill-rule:nonzero;stroke:none;stroke-width:0.01023236"
         d="m 16.931074,296.91363 v 0 c -1.568723,0.44992 -3.218896,0.44992 -4.78762,0 v 0 c -0.478568,-0.13722 -0.271158,-0.73162 -0.271158,-1.26646 l 0.164332,-2.3911 -0.127802,-6.62587 -0.577208,-4.84983 c 0,-0.72445 0.408578,-1.37584 1.031422,-1.64454 v 0 c 1.395899,-0.60218 2.952549,-0.60218 4.348448,0 v 0 c 0.622946,0.2687 1.031422,0.92009 1.031422,1.64454 l -0.577208,4.84983 -0.127802,6.62587 0.164332,2.3911 c 0,0.53484 0.207512,1.12924 -0.271158,1.26646" />
      <path
         inkscape:connector-curvature="0"
         id="path76"
         style="fill:#bee71e;fill-opacity:1;fill-rule:nonzero;stroke:none;stroke-width:0.01023236"
         d="m 11.057084,284.86574 -0.725884,0.41062 c -0.122891,0.0696 -0.198917,0.19994 -0.198917,0.34125 v 0 c 0,0.0565 0.05362,0.0975 0.108053,0.0827 l 0.816748,-0.22245 v -0.6121" />
      <path
         inkscape:connector-curvature="0"
         id="path78"
         style="fill:#313d59;fill-opacity:1;fill-rule:nonzero;stroke:none;stroke-width:0.01023236"
         d="m 11.52061,289.39519 c 0.08953,0.0768 0.174769,0.15707 0.25806,0.23924 -0.03632,-3.34394 -0.490437,-4.76869 -0.490437,-4.76869 0,0 -0.139877,0.81644 -0.145811,4.18861 0.117569,0.12463 0.254479,0.23484 0.378188,0.34084" />
      <path
         inkscape:connector-curvature="0"
         id="path80"
         style="fill:#313d59;fill-opacity:1;fill-rule:nonzero;stroke:none;stroke-width:0.01023236"
         d="m 11.144263,289.71199 c 0.02967,3.33728 0.390467,5.76481 0.390467,5.76481 0,0 0.240666,-1.72415 0.246191,-5.28952 -0.216824,-0.15185 -0.428429,-0.31157 -0.636658,-0.47529" />
      <path
         inkscape:connector-curvature="0"
         id="path82"
         style="fill:#ffffff;fill-opacity:1;fill-rule:nonzero;stroke:none;stroke-width:0.01023236"
         d="m 12.86678,279.84216 c -0.25141,0.0667 -0.499954,0.14878 -0.743893,0.24619 v 0 c -0.323036,0.12903 -0.593989,0.3438 -0.791269,0.61189 0.01474,0.062 0.03489,0.12259 0.06068,0.18071 0.471405,-0.37359 0.970437,-0.71003 1.474484,-1.03879" />
      <path
         inkscape:connector-curvature="0"
         id="path84"
         style="fill:#bee71e;fill-opacity:1;fill-rule:nonzero;stroke:none;stroke-width:0.01023236"
         d="m 18.017547,284.86574 0.725781,0.41062 c 0.122993,0.0696 0.19902,0.19994 0.19902,0.34125 v 0 c 0,0.0565 -0.05362,0.0975 -0.108054,0.0827 l -0.816747,-0.22245 v -0.6121" />
      <path
         inkscape:connector-curvature="0"
         id="path86"
         style="fill:#313d59;fill-opacity:1;fill-rule:nonzero;stroke:none;stroke-width:0.01023236"
         d="m 14.537315,293.45683 c -1.168229,0 -2.500687,-0.20076 -2.500687,-0.20076 l -0.164332,2.3911 c 0,0 0.602379,0.32856 2.665019,0.32856 2.062538,0 2.664917,-0.32856 2.664917,-0.32856 l -0.164332,-2.3911 c 0,0 -1.332458,0.20076 -2.500585,0.20076 z m -2.628489,-6.82663 -0.255502,-3.41331 c 0,0 1.022213,-0.54763 2.883991,-0.54763 1.861779,0 2.88389,0.54763 2.88389,0.54763 l -0.255503,3.41331 c 0,0 -1.076956,-0.20075 -2.628387,-0.20075 -1.551533,0 -2.628489,0.20075 -2.628489,0.20075" />
      <path
         inkscape:connector-curvature="0"
         id="path88"
         style="fill:#313d59;fill-opacity:1;fill-rule:nonzero;stroke:none;stroke-width:0.01023236"
         d="m 17.553918,289.39519 c -0.08953,0.0768 -0.174768,0.15707 -0.25806,0.23924 0.03633,-3.34394 0.490438,-4.76869 0.490438,-4.76869 0,0 0.139876,0.81644 0.145811,4.18861 -0.117468,0.12463 -0.254479,0.23484 -0.378189,0.34084" />
      <path
         inkscape:connector-curvature="0"
         id="path90"
         style="fill:#313d59;fill-opacity:1;fill-rule:nonzero;stroke:none;stroke-width:0.01023236"
         d="m 17.930367,289.71199 c -0.02978,3.33728 -0.390467,5.76481 -0.390467,5.76481 0,0 -0.240665,-1.72415 -0.246293,-5.28952 0.216926,-0.15185 0.428429,-0.31157 0.63676,-0.47529" />
      <path
         inkscape:connector-curvature="0"
         id="path92"
         style="fill:#ffffff;fill-opacity:1;fill-rule:nonzero;stroke:none;stroke-width:0.01023236"
         d="m 16.207851,279.84216 c 0.251409,0.0667 0.499851,0.14878 0.743893,0.24619 v 0 c 0.322933,0.12903 0.593989,0.3438 0.791166,0.61189 -0.01463,0.062 -0.03479,0.12259 -0.06068,0.18071 -0.471405,-0.37359 -0.970437,-0.71003 -1.474381,-1.03879" />
    </g>
  </g>
</svg>
