<?xml version="1.0" encoding="UTF-8" standalone="no"?>
<!-- Created with Inkscape (http://www.inkscape.org/) -->

<svg
   xmlns:dc="http://purl.org/dc/elements/1.1/"
   xmlns:cc="http://creativecommons.org/ns#"
   xmlns:rdf="http://www.w3.org/1999/02/22-rdf-syntax-ns#"
   xmlns:svg="http://www.w3.org/2000/svg"
   xmlns="http://www.w3.org/2000/svg"
   xmlns:sodipodi="http://sodipodi.sourceforge.net/DTD/sodipodi-0.dtd"
   xmlns:inkscape="http://www.inkscape.org/namespaces/inkscape"
   width="0.33333334in"
   height="0.66667002in"
   viewBox="0 0 8.4666669 16.933419"
   version="1.1"
   id="svg4849"
   inkscape:version="0.92.1 r15371"
   sodipodi:docname="car5.svg">
  <defs
     id="defs4843" />
  <sodipodi:namedview
     id="base"
     pagecolor="#ffffff"
     bordercolor="#666666"
     borderopacity="1.0"
     inkscape:pageopacity="0.0"
     inkscape:pageshadow="2"
     inkscape:zoom="3.959798"
     inkscape:cx="52.044682"
     inkscape:cy="28.885172"
     inkscape:document-units="mm"
     inkscape:current-layer="layer1"
     showgrid="false"
     inkscape:window-width="1920"
     inkscape:window-height="1019"
     inkscape:window-x="0"
     inkscape:window-y="26"
     inkscape:window-maximized="1"
     inkscape:snap-global="false"
     units="in" />
  <metadata
     id="metadata4846">
    <rdf:RDF>
      <cc:Work
         rdf:about="">
        <dc:format>image/svg+xml</dc:format>
        <dc:type
           rdf:resource="http://purl.org/dc/dcmitype/StillImage" />
        <dc:title></dc:title>
      </cc:Work>
    </rdf:RDF>
  </metadata>
  <g
     inkscape:label="Calque 1"
     inkscape:groupmode="layer"
     id="layer1"
     transform="translate(0,-280.06659)">
    <g
       transform="matrix(0.00884421,0,0,-0.00884421,-23.288743,302.25579)"
       id="g4803">
      <path
         inkscape:connector-curvature="0"
         id="path96"
         style="fill:#bee71e;fill-opacity:1;fill-rule:nonzero;stroke:none"
         d="m 2738.46,1210.27 c 9.51,247.37 30.92,591.06 16.65,743.27 -14.28,152.23 2.37,275.91 30.92,330.61 28.54,54.71 64.21,154.6 325.84,154.6 261.64,0 297.31,-99.89 325.85,-154.6 28.55,-54.7 45.2,-178.38 30.92,-330.61 -14.27,-152.21 7.14,-495.9 16.65,-743.27 9.51,-247.348 28.55,-394.821 -99.89,-470.93 -128.44,-76.11 -273.53,-74.93 -273.53,-74.93 0,0 -145.08,-1.18 -273.52,74.93 -128.44,76.109 -109.4,223.582 -99.89,470.93" />
      <path
         inkscape:connector-curvature="0"
         id="path98"
         style="fill:#de7ec7;fill-opacity:1;fill-rule:nonzero;stroke:none"
         d="m 3418.47,2268.54 c -26.86,53.54 -60.42,151.3 -306.6,151.3 -246.17,0 -279.74,-97.76 -306.6,-151.3 -26.85,-53.54 -14.57,-160.96 -1.14,-309.94 13.43,-148.98 22.33,-707.05 22.33,-949.3 0,-180.468 285.41,-170.96 285.41,-170.96 0,0 285.42,-9.508 285.42,170.96 0,242.25 8.9,800.32 22.33,949.3 13.43,148.98 25.7,256.4 -1.15,309.94" />
      <path
         inkscape:connector-curvature="0"
         id="path100"
         style="fill:#ffffff;fill-opacity:1;fill-rule:nonzero;stroke:none"
         d="m 2953.2,2410.26 c -112.53,-30.38 -136.66,-93.15 -157.02,-132.17 -8.44,-16.18 -15.79,-38.59 -21.55,-66.07 66.86,58.94 126.89,125.61 178.57,198.24" />
      <path
         inkscape:connector-curvature="0"
         id="path102"
         style="fill:#313d59;fill-opacity:1;fill-rule:nonzero;stroke:none"
         d="m 2818.64,1349.16 c 2.57,-0.8 5.19,-1.6 7.82,-2.42 v 247.65 c 0,123.69 -47.57,352.03 -47.57,352.03 0,0 -9.45,-387.29 -0.22,-583.5 12.9,-5.68 26.74,-9.62 39.97,-13.76" />
      <path
         inkscape:connector-curvature="0"
         id="path104"
         style="fill:#313d59;fill-opacity:1;fill-rule:nonzero;stroke:none"
         d="m 2780.05,1337.42 c 11.13,-184.43 46.41,-328.12 46.41,-328.12 0,0 0,158.52 0,314.64 -15.55,4.21 -30.98,8.85 -46.41,13.48" />
      <path
         inkscape:connector-curvature="0"
         id="path106"
         style="fill:#ef2d32;fill-opacity:1;fill-rule:nonzero;stroke:none"
         d="m 2891.56,728.73 c -52.14,51.18 -95.64,111.129 -128.12,176.579 -2.92,-26.84 -1.7,-54.11 3.42,-80.61 16.27,-31.687 40.24,-57.59 75.05,-78.23 20.23,-11.977 40.85,-22.039 61.27,-30.489 -3.54,4.579 -7.66,8.872 -11.62,12.75" />
      <path
         inkscape:connector-curvature="0"
         id="path108"
         style="fill:#bee71e;fill-opacity:1;fill-rule:nonzero;stroke:none"
         d="m 2765.81,1889.92 c 0,0 -42.81,-18.73 -76.71,-42.81 -19.98,-14.2 -22.91,-28.7 -21.95,-38.22 0.6,-5.97 6.66,-9.8 12.39,-8.06 l 64.03,19.36 c 2.26,0.68 4.19,2.16 5.43,4.17 l 16.81,27.21 v 38.35" />
      <path
         inkscape:connector-curvature="0"
         id="path110"
         style="fill:#ffffff;fill-opacity:1;fill-rule:nonzero;stroke:none"
         d="m 3270.55,2410.26 c 112.53,-30.38 136.66,-93.15 157.02,-132.17 8.44,-16.18 15.79,-38.59 21.55,-66.07 -66.86,58.94 -126.89,125.61 -178.57,198.24" />
      <path
         inkscape:connector-curvature="0"
         id="path112"
         style="fill:#313d59;fill-opacity:1;fill-rule:nonzero;stroke:none"
         d="m 3353.98,2045.96 c -48.34,16.39 -124.59,31.27 -242.11,31.27 -117.51,0 -193.76,-14.88 -242.1,-31.27 -45.57,-15.44 -72.91,-61.91 -63.94,-109.17 l 47.34,-249.36 c 1.62,-8.46 9.04,-14.55 17.65,-14.5 121.99,0.68 241.05,9.47 241.05,9.47 0,0 119.07,-8.79 241.06,-9.47 8.61,-0.05 16.03,6.04 17.65,14.5 l 47.34,249.36 c 8.97,47.26 -18.37,93.73 -63.94,109.17" />
      <path
         inkscape:connector-curvature="0"
         id="path114"
         style="fill:#ef2d32;fill-opacity:1;fill-rule:nonzero;stroke:none"
         d="m 3332.19,728.73 c 52.14,51.18 95.64,111.129 128.12,176.579 2.92,-26.84 1.7,-54.11 -3.43,-80.61 -16.27,-31.687 -40.23,-57.59 -75.05,-78.23 -20.22,-11.977 -40.85,-22.039 -61.26,-30.489 3.54,4.579 7.66,8.872 11.62,12.75" />
      <path
         inkscape:connector-curvature="0"
         id="path116"
         style="fill:#313d59;fill-opacity:1;fill-rule:nonzero;stroke:none"
         d="m 3111.87,823.781 c -80.86,0 -221.2,16.649 -279.34,79.149 0,0 1.06,-150 131.3,-194.508 109.44,-37.391 148.04,-24.973 148.04,-24.973 0,0 38.61,-12.418 148.05,24.973 130.24,44.508 131.3,194.508 131.3,194.508 -58.14,-62.5 -198.48,-79.149 -279.35,-79.149" />
      <path
         inkscape:connector-curvature="0"
         id="path118"
         style="fill:#bee71e;fill-opacity:1;fill-rule:nonzero;stroke:none"
         d="m 3457.94,1889.92 c 0,0 42.81,-18.73 76.71,-42.81 19.98,-14.2 22.91,-28.7 21.95,-38.22 -0.6,-5.97 -6.66,-9.8 -12.39,-8.06 l -64.03,19.36 c -2.26,0.68 -4.19,2.16 -5.43,4.17 l -16.81,27.21 v 38.35" />
      <path
         inkscape:connector-curvature="0"
         id="path120"
         style="fill:#313d59;fill-opacity:1;fill-rule:nonzero;stroke:none"
         d="m 3405.11,1349.16 c -2.57,-0.8 -5.19,-1.6 -7.82,-2.42 v 247.65 c 0,123.69 47.57,352.03 47.57,352.03 0,0 9.45,-387.29 0.22,-583.5 -12.9,-5.68 -26.74,-9.62 -39.97,-13.76" />
      <path
         inkscape:connector-curvature="0"
         id="path122"
         style="fill:#313d59;fill-opacity:1;fill-rule:nonzero;stroke:none"
         d="m 3443.7,1337.42 c -11.14,-184.43 -46.41,-328.12 -46.41,-328.12 0,0 0,158.52 0,314.64 15.54,4.21 30.98,8.85 46.41,13.48" />
    </g>
  </g>
</svg>
