<?xml version="1.0" encoding="UTF-8" standalone="no"?>
<!-- Created with Inkscape (http://www.inkscape.org/) -->

<svg
   xmlns:dc="http://purl.org/dc/elements/1.1/"
   xmlns:cc="http://creativecommons.org/ns#"
   xmlns:rdf="http://www.w3.org/1999/02/22-rdf-syntax-ns#"
   xmlns:svg="http://www.w3.org/2000/svg"
   xmlns="http://www.w3.org/2000/svg"
   xmlns:sodipodi="http://sodipodi.sourceforge.net/DTD/sodipodi-0.dtd"
   xmlns:inkscape="http://www.inkscape.org/namespaces/inkscape"
   width="0.33333334in"
   height="0.66667002in"
   viewBox="0 0 8.4666669 16.933419"
   version="1.1"
   id="svg4849"
   inkscape:version="0.92.1 r15371"
   sodipodi:docname="car6.svg">
  <defs
     id="defs4843" />
  <sodipodi:namedview
     id="base"
     pagecolor="#ffffff"
     bordercolor="#666666"
     borderopacity="1.0"
     inkscape:pageopacity="0.0"
     inkscape:pageshadow="2"
     inkscape:zoom="3.959798"
     inkscape:cx="52.044682"
     inkscape:cy="28.885172"
     inkscape:document-units="mm"
     inkscape:current-layer="layer1"
     showgrid="false"
     inkscape:window-width="1920"
     inkscape:window-height="1019"
     inkscape:window-x="0"
     inkscape:window-y="26"
     inkscape:window-maximized="1"
     inkscape:snap-global="false"
     units="in" />
  <metadata
     id="metadata4846">
    <rdf:RDF>
      <cc:Work
         rdf:about="">
        <dc:format>image/svg+xml</dc:format>
        <dc:type
           rdf:resource="http://purl.org/dc/dcmitype/StillImage" />
        <dc:title></dc:title>
      </cc:Work>
    </rdf:RDF>
  </metadata>
  <g
     inkscape:label="Calque 1"
     inkscape:groupmode="layer"
     id="layer1"
     transform="translate(0,-280.06659)">
    <g
       transform="matrix(0.00901725,0,0,-0.00901725,-33.98876,302.52433)"
       id="g4816">
      <path
         inkscape:connector-curvature="0"
         id="path126"
         style="fill:#bee71e;fill-opacity:1;fill-rule:nonzero;stroke:none"
         d="m 4570.64,2172.83 c -5.35,135.57 -35.05,162.45 -62.44,171.25 -174.81,56.15 -233.75,56.15 -269.42,56.15 -35.67,0 -94.61,0 -269.42,-56.15 -27.39,-8.8 -57.08,-35.68 -62.44,-171.25 -5.35,-135.57 8.92,-1015.02 23.19,-1202.318 14.27,-187.301 32.11,-235.461 71.35,-247.953 39.25,-12.489 191.07,-19.618 237.32,-19.618 46.26,0 198.08,7.129 237.31,19.618 39.25,12.492 57.09,60.652 71.36,247.953 14.27,187.298 28.55,1066.748 23.19,1202.318" />
      <path
         inkscape:connector-curvature="0"
         id="path128"
         style="fill:#de7ec7;fill-opacity:1;fill-rule:nonzero;stroke:none"
         d="m 4553.8,2141.29 c -5.09,128.69 -33.27,154.21 -59.27,162.56 -165.95,53.31 -221.88,53.31 -255.75,53.31 -33.87,0 -89.81,0 -255.75,-53.31 -25.99,-8.35 -54.18,-33.87 -59.26,-162.56 -1.31,-32.99 33.09,-231.58 91.96,-435.83 l 3.58,-763.491 19.62,-69.571 c 37.25,-11.847 155.94,-126.378 199.85,-126.378 43.91,0 162.61,114.531 199.85,126.378 l 19.63,69.571 3.57,763.491 c 58.86,220.6 93.14,406.1 91.97,435.83" />
      <path
         inkscape:connector-curvature="0"
         id="path130"
         style="fill:#313d59;fill-opacity:1;fill-rule:nonzero;stroke:none"
         d="m 3940.81,1854.73 c 0,0 58.87,-188.52 66.01,-277.71 7.13,-89.19 12.49,-601.161 12.49,-635.051 0,-33.887 -39.25,-103.457 -39.25,-103.457 0,0 -32.11,756.988 -39.25,1016.218" />
      <path
         inkscape:connector-curvature="0"
         id="path132"
         style="fill:#bee71e;fill-opacity:1;fill-rule:nonzero;stroke:none"
         d="m 3922.98,1833.9 c 0,0 -60.66,-11.35 -60.66,-68.11 l 60.66,30.65 v 37.46" />
      <path
         inkscape:connector-curvature="0"
         id="path134"
         style="fill:#ffffff;fill-opacity:1;fill-rule:nonzero;stroke:none"
         d="m 4027.17,2349.06 c -15.74,-4.68 -32.55,-9.86 -50.68,-15.68 -15.3,-4.92 -31.3,-15.5 -43.4,-47.48 1.16,-19.23 5.82,-38.25 13.88,-55.75 19.59,43.87 46.95,84.22 80.2,118.91" />
      <path
         inkscape:connector-curvature="0"
         id="path136"
         style="fill:#ef2d32;fill-opacity:1;fill-rule:nonzero;stroke:none"
         d="m 4023.6,741.332 c -22.96,9.078 -33.02,16.348 -42.6,39.098 -9.57,22.761 -16.17,64.48 -18.85,89.019 -4.44,-1.527 -8.61,-3.758 -12.41,-6.488 12.28,-94.691 28.86,-124 57.55,-133.129 14.52,-4.613 45.35,-8.461 80.09,-11.434 -12.59,17.102 -42.96,14.711 -63.78,22.934" />
      <path
         inkscape:connector-curvature="0"
         id="path138"
         style="fill:#313d59;fill-opacity:1;fill-rule:nonzero;stroke:none"
         d="m 4536.75,1854.73 c 0,0 -58.87,-188.52 -66.01,-277.71 -7.13,-89.19 -12.48,-601.161 -12.48,-635.051 0,-33.887 39.24,-103.457 39.24,-103.457 0,0 32.11,756.988 39.25,1016.218" />
      <path
         inkscape:connector-curvature="0"
         id="path140"
         style="fill:#313d59;fill-opacity:1;fill-rule:nonzero;stroke:none"
         d="m 4238.78,824.242 c -55.24,0 -162.39,16.047 -199.85,48.156 L 3997.9,771.852 c 0,0 107.03,-45.731 240.88,-45.731 133.85,0 240.89,45.731 240.89,45.731 l -41.04,100.546 c -37.46,-32.109 -144.62,-48.156 -199.85,-48.156 z m -223.05,881.218 -58.87,220.6 c 0,0 110.61,79.09 281.92,79.09 171.31,0 281.91,-79.09 281.91,-79.09 l -58.86,-220.6 c 0,0 -137.48,26.76 -223.05,26.76 -85.56,0 -223.05,-26.76 -223.05,-26.76" />
      <path
         inkscape:connector-curvature="0"
         id="path142"
         style="fill:#bee71e;fill-opacity:1;fill-rule:nonzero;stroke:none"
         d="m 4554.59,1833.9 c 0,0 60.64,-11.35 60.64,-68.11 l -60.64,30.65 v 37.46" />
      <path
         inkscape:connector-curvature="0"
         id="path144"
         style="fill:#ffffff;fill-opacity:1;fill-rule:nonzero;stroke:none"
         d="m 4450.39,2349.06 c 15.74,-4.68 32.56,-9.86 50.68,-15.68 15.3,-4.92 31.31,-15.5 43.4,-47.48 -1.16,-19.23 -5.82,-38.25 -13.88,-55.75 -19.59,43.87 -46.95,84.22 -80.2,118.91" />
      <path
         inkscape:connector-curvature="0"
         id="path146"
         style="fill:#ef2d32;fill-opacity:1;fill-rule:nonzero;stroke:none"
         d="m 4453.95,741.332 c 22.97,9.078 33.04,16.348 42.61,39.098 9.57,22.761 16.16,64.48 18.85,89.019 4.43,-1.527 8.61,-3.758 12.42,-6.488 -12.29,-94.691 -28.88,-124 -57.57,-133.129 -14.51,-4.613 -45.34,-8.461 -80.08,-11.434 12.58,17.102 42.95,14.711 63.77,22.934" />
    </g>
  </g>
</svg>
