<?xml version="1.0" encoding="UTF-8" standalone="no"?>
<!-- Created with Inkscape (http://www.inkscape.org/) -->

<svg
   xmlns:osb="http://www.openswatchbook.org/uri/2009/osb"
   xmlns:dc="http://purl.org/dc/elements/1.1/"
   xmlns:cc="http://creativecommons.org/ns#"
   xmlns:rdf="http://www.w3.org/1999/02/22-rdf-syntax-ns#"
   xmlns:svg="http://www.w3.org/2000/svg"
   xmlns="http://www.w3.org/2000/svg"
   xmlns:sodipodi="http://sodipodi.sourceforge.net/DTD/sodipodi-0.dtd"
   xmlns:inkscape="http://www.inkscape.org/namespaces/inkscape"
   version="1.1"
   id="svg5507"
   xml:space="preserve"
   width="2in"
   height="2in"
   viewBox="0 0 191.99999 192.00001"
   sodipodi:docname="grid.svg"
   inkscape:version="0.92.1 r15371"><metadata
     id="metadata5513"><rdf:RDF><cc:Work
         rdf:about=""><dc:format>image/svg+xml</dc:format><dc:type
           rdf:resource="http://purl.org/dc/dcmitype/StillImage" /><dc:title /></cc:Work></rdf:RDF></metadata><defs
     id="defs5511"><linearGradient
       id="linearGradient5969"
       osb:paint="solid"><stop
         style="stop-color:#ffffff;stop-opacity:1;"
         offset="0"
         id="stop5967" /></linearGradient><clipPath
       clipPathUnits="userSpaceOnUse"
       id="clipPath5621"><path
         d="m 0.0977248,0.7352946 v 0.001781 h 0.262383 v -0.001781 z"
         id="path5619"
         inkscape:connector-curvature="0"
         style="clip-rule:evenodd" /></clipPath><clipPath
       clipPathUnits="userSpaceOnUse"
       id="clipPath5631"><path
         d="m 0.0481927,0.5962566 v 0.001783 h 0.3119151 v -0.001783 z"
         id="path5629"
         inkscape:connector-curvature="0"
         style="clip-rule:evenodd" /></clipPath><clipPath
       clipPathUnits="userSpaceOnUse"
       id="clipPath5641"><path
         d="m 0.0388208,0.4616748 v 0.001783 h 0.321287 v -0.001783 z"
         id="path5639"
         inkscape:connector-curvature="0"
         style="clip-rule:evenodd" /></clipPath><clipPath
       clipPathUnits="userSpaceOnUse"
       id="clipPath7319"><path
         d="M 0.3405787,0.2624604 V 0.288028 h 0.005066 V 0.2624604 Z m 0.0455078,0 V 0.2838585 L 0.3749573,0.2624604 H 0.3703853 L 0.3593099,0.2842252 V 0.2624604 H 0.3544239 V 0.288028 h 0.007627 l 0.009065,-0.0181033 c 8.358e-4,-0.001686 0.001447,-0.002947 0.00183,-0.003786 4.338e-4,9.317e-4 0.001114,0.002298 0.002039,0.0041 l 0.009169,0.0177892 h 0.006817 V 0.2624603 Z m 0.039188,0.0126521 C 0.4232038,0.2736074 0.4194582,0.2728548 0.4140408,0.2728548 H 0.4042198 V 0.2624604 H 0.3991508 V 0.288028 h 0.0144474 c 0.002542,0 0.004483,-8.22e-5 0.005826,-2.445e-4 0.001881,-2.108e-4 0.003458,-6.092e-4 0.00473,-0.001195 0.00127,-5.881e-4 0.002292,-0.00141 0.003068,-0.002469 7.757e-4,-0.001058 0.001162,-0.00222 0.001162,-0.003487 0,-0.002175 -0.001035,-0.004016 -0.003109,-0.005521 z m -0.003331,0.008162 c -8.074e-4,7.61e-4 -0.001874,0.001265 -0.003198,0.001509 -8.549e-4,1.496e-4 -0.002432,2.255e-4 -0.00473,2.255e-4 H 0.4042195 V 0.275871 h 0.009901 c 0.003274,0 0.005601,4.069e-4 0.006975,0.001221 0.001377,8.137e-4 0.002064,0.001958 0.002064,0.003436 0,0.001069 -4.053e-4,0.001986 -0.001216,0.002746 z M 0.4675718,0.268251 C 0.4660045,0.2662041 0.463785,0.2646548 0.4609101,0.2636029 0.4580352,0.2625489 0.4549355,0.262024 0.451611,0.262024 c -0.003606,0 -0.006829,5.818e-4 -0.009666,0.001743 C 0.439105,0.264931 0.436955,0.266518 0.435492,0.268529 0.434029,0.27054 0.433298,0.272667 0.433298,0.274912 c 0,0.004243 0.001706,0.007566 0.00512,0.009966 0.003413,0.002401 0.007821,0.003603 0.0132189,0.003603 0.003537,0 0.006722,-5.65e-4 0.009562,-0.001693 0.002837,-0.001128 0.005003,-0.0027 0.006491,-0.004718 0.001491,-0.002017 0.002235,-0.004304 0.002235,-0.006862 0,-0.002593 -7.853e-4,-0.004914 -0.002353,-0.006958 z m -0.004455,0.0124244 c -0.001054,0.001554 -0.002593,0.002755 -0.004623,0.003611 -0.00203,8.537e-4 -0.004306,0.001282 -0.006833,0.001282 -0.003587,0 -0.006674,-8.221e-4 -0.009261,-0.002468 -0.002587,-0.001644 -0.003879,-0.004391 -0.003879,-0.00824 0,-0.003082 0.001241,-0.005508 0.003723,-0.007281 0.002479,-0.001773 0.005595,-0.00266 0.009337,-0.00266 0.003815,0 0.006956,8.959e-4 0.009419,0.002686 0.002463,0.001792 0.003698,0.004332 0.003698,0.007622 0,0.002081 -5.287e-4,0.003898 -0.001583,0.005449 z M 0.496362,0.2740922 c 0.001342,-4.3e-4 0.002359,-8.537e-4 0.003059,-0.001273 0.001479,-9.065e-4 0.002881,-0.002041 0.004205,-0.0034 L 0.510288,0.2624612 H 0.503914 l -0.005069,0.005318 c -0.001482,0.001535 -0.002701,0.002709 -0.003657,0.003522 -9.594e-4,8.137e-4 -0.001817,0.001385 -0.002574,0.00171 -7.568e-4,3.246e-4 -0.001529,5.523e-4 -0.002311,6.809e-4 -5.762e-4,8.01e-5 -0.001517,1.222e-4 -0.002821,1.222e-4 H 0.481602 V 0.2624608 H 0.476533 v 0.0255676 h 0.0169835 c 0.003413,0 0.00601,-2.297e-4 0.007786,-6.893e-4 0.001776,-4.595e-4 0.003195,-0.001271 0.004259,-0.002433 0.001061,-0.001164 0.001593,-0.002449 0.001593,-0.003856 0,-0.001813 -8.802e-4,-0.003343 -0.002637,-0.004587 C 0.5027546,0.27522 0.500038,0.2744295 0.496362,0.2740922 Z m 0.003594,0.009941 C 0.498639,0.2848111 0.496562,0.2852012 0.493725,0.2852012 H 0.4816016 v -0.008457 h 0.0108949 c 0.002314,0 0.004129,1.581e-4 0.005433,4.785e-4 0.001308,3.205e-4 0.002299,8.306e-4 0.002979,0.001535 6.776e-4,7.04e-4 0.00102,0.001467 0.00102,0.002293 0,0.00121 -6.586e-4,0.002203 -0.001972,0.002982 z m 0.0289865,9.76e-4 v -0.022549 h -0.005069 v 0.022549 H 0.5112531 v 0.003019 h 0.0303575 v -0.003019 z m 0.0397612,-0.022549 -0.004467,0.007743 H 0.548222 L 0.544017,0.2624602 H 0.538634 L 0.553341,0.2880278 H 0.558803 L 0.5744788,0.2624602 Z m -0.010034,0.0175786 c -0.001219,0.002152 -0.002125,0.003919 -0.002717,0.005302 -4.876e-4,-0.001638 -0.001175,-0.003267 -0.002061,-0.004882 l -0.004208,-0.0075 h 0.0129846 l -0.003999,0.007081 z M 0.6034493,0.2624604 0.5833344,0.2825515 V 0.2624604 h -0.00486 V 0.288028 h 0.005199 L 0.6037882,0.2679538 V 0.288028 h 0.00486 V 0.2624604 Z m 0.0285306,0.022549 v -0.022549 h -0.005069 v 0.022549 H 0.6142936 v 0.003019 H 0.6446511 V 0.2850094 Z M 0.3355887,0.2534614 v 0.002616 h 0.3091668 v -0.002616 z"
         id="path7317"
         inkscape:connector-curvature="0" /></clipPath></defs><sodipodi:namedview
     pagecolor="#ffffff"
     bordercolor="#666666"
     borderopacity="1"
     objecttolerance="10"
     gridtolerance="10"
     guidetolerance="10"
     inkscape:pageopacity="0"
     inkscape:pageshadow="2"
     inkscape:window-width="1920"
     inkscape:window-height="1019"
     id="namedview5509"
     showgrid="false"
     units="in"
     inkscape:zoom="4.5481499"
     inkscape:cx="98.023588"
     inkscape:cy="86.967966"
     inkscape:window-x="0"
     inkscape:window-y="26"
     inkscape:window-maximized="1"
     inkscape:current-layer="g5515" /><g
     id="g5515"
     inkscape:groupmode="layer"
     inkscape:label="bridge-size printerstudio"
     transform="matrix(1.3333333,0,0,-1.3333333,0,192.00001)"><path
       style="fill:none;fill-opacity:1;stroke:#000000;stroke-width:1.00449443;stroke-linejoin:round;stroke-miterlimit:4;stroke-dasharray:none;stroke-opacity:1"
       d="M 191.49774 97.785144 L 191.49775 188.46607 C 191.49775 190.14562 190.14562 191.49775 188.46606 191.49775 L 3.5339285 191.49775 C 1.8543771 191.49775 0.5022472 190.14562 0.5022472 188.46607 L 0.5022472 3.533934 C 0.5022472 1.8543826 1.8543771 0.50225274 3.5339285 0.50225274 L 3.5339285 0.50225274 L 188.46606 0.50225274 C 190.14562 0.50225274 191.49775 1.8543826 191.49775 3.533934 L 191.49775 63.115497 "
       id="path6510"
       transform="matrix(0.75000002,0,0,-0.75000002,0,144.00001)" /><circle
       style="fill:#b6b6b6;fill-opacity:1;stroke:none;stroke-width:1.30269372;stroke-miterlimit:4;stroke-dasharray:none;stroke-opacity:1"
       id="path7868-3"
       cx="190.43602"
       cy="-168.04532"
       transform="scale(1,-1)"
       r="0" /><circle
       style="fill:#b6b6b6;fill-opacity:1;stroke:none;stroke-width:1.30269372;stroke-miterlimit:4;stroke-dasharray:none;stroke-opacity:1"
       id="path7868-5"
       cx="190.43602"
       cy="-168.04532"
       transform="scale(1,-1)"
       r="0" /></g></svg>