<?xml version="1.0" encoding="UTF-8" standalone="no"?>
<svg
   xmlns:dc="http://purl.org/dc/elements/1.1/"
   xmlns:cc="http://creativecommons.org/ns#"
   xmlns:rdf="http://www.w3.org/1999/02/22-rdf-syntax-ns#"
   xmlns:svg="http://www.w3.org/2000/svg"
   xmlns="http://www.w3.org/2000/svg"
   xmlns:sodipodi="http://sodipodi.sourceforge.net/DTD/sodipodi-0.dtd"
   xmlns:inkscape="http://www.inkscape.org/namespaces/inkscape"
   viewBox="0 -31 31.99968 31.999682"
   version="1.1"
   id="svg22"
   sodipodi:docname="barrier.svg"
   width="0.33333001in"
   height="0.33333001in"
   inkscape:version="0.92.1 r15371">
  <metadata
     id="metadata28">
    <rdf:RDF>
      <cc:Work
         rdf:about="">
        <dc:format>image/svg+xml</dc:format>
        <dc:type
           rdf:resource="http://purl.org/dc/dcmitype/StillImage" />
        <dc:title></dc:title>
      </cc:Work>
    </rdf:RDF>
  </metadata>
  <defs
     id="defs26" />
  <sodipodi:namedview
     pagecolor="#ffffff"
     bordercolor="#666666"
     borderopacity="1"
     objecttolerance="10"
     gridtolerance="10"
     guidetolerance="10"
     inkscape:pageopacity="0"
     inkscape:pageshadow="2"
     inkscape:window-width="1920"
     inkscape:window-height="1019"
     id="namedview24"
     showgrid="false"
     units="in"
     inkscape:zoom="4"
     inkscape:cx="19.238075"
     inkscape:cy="59.091188"
     inkscape:window-x="0"
     inkscape:window-y="26"
     inkscape:window-maximized="1"
     inkscape:current-layer="svg22" />
  <g
     id="g4515"
     transform="matrix(0.30386526,0,0,0.30386526,1.3895238,-20.648296)">
    <path
       style="fill:#c8d2dc;stroke-width:0.12339035"
       inkscape:connector-curvature="0"
       id="path2"
       d="M 71.799015,25.754152 H 48.081558 l -2.469727,3.935477 2.469727,3.934996 h 23.717457 z m 0,0" />
    <path
       style="fill:#dce6eb;stroke-width:0.12339035"
       inkscape:connector-curvature="0"
       id="path4"
       d="m 24.364107,25.754152 h 23.717451 v 7.870473 H 24.364107 Z m 0,0" />
    <path
       style="fill:#c8d2dc;stroke-width:0.12339035"
       inkscape:connector-curvature="0"
       id="path6"
       d="m 20.429113,-9.06506 h 7.870473 v 55.305385 h -7.870473 z m 0,0" />
    <path
       style="fill:#a2abb8;stroke-width:0.12339035"
       inkscape:connector-curvature="0"
       id="path8"
       d="m 67.863542,-9.06506 h 7.870468 v 55.305385 h -7.870468 z m 0,0" />
    <path
       style="fill:#2d2d2d;stroke-width:0.12339035"
       inkscape:connector-curvature="0"
       id="path10"
       d="M 64.785528,13.138936 H 79.66949 V -1.1945874 L 69.366399,4.520892 Z m 0,0" />
    <path
       style="fill:#ffcd00;stroke-width:0.12339035"
       inkscape:connector-curvature="0"
       id="path12"
       d="M 67.596513,-1.1945874 56.657191,5.569709 52.712558,13.138936 h 12.07297 L 79.66949,-1.1945874 Z m 0,0" />
    <path
       style="fill:#2d2d2d;stroke-width:0.12339035"
       inkscape:connector-curvature="0"
       id="path14"
       d="M 55.523543,-1.1945874 44.564939,5.569709 40.639581,13.138936 H 52.712558 L 67.596513,-1.1945874 Z m 0,0" />
    <path
       style="fill:#fff04a;stroke-width:0.12339035"
       inkscape:connector-curvature="0"
       id="path16"
       d="M 43.450565,-1.1945874 32.349292,5.693099 28.566609,13.138936 H 40.639581 L 55.523543,-1.1945874 Z m 0,0" />
    <path
       style="fill:#5a5a5a;stroke-width:0.12339035"
       inkscape:connector-curvature="0"
       id="path18"
       d="M 31.377594,-1.1945874 22.786539,4.829367 16.493635,13.138936 H 28.566609 L 43.450565,-1.1945874 Z m 0,0" />
    <path
       style="fill:#fff04a;stroke-width:0.12339035"
       inkscape:connector-curvature="0"
       id="path20"
       d="M 16.493635,-1.1945874 V 13.138936 L 31.377594,-1.1945874 Z m 0,0" />
  </g>
</svg>
