<?xml version="1.0" encoding="UTF-8" standalone="no"?>
<!-- Created with Inkscape (http://www.inkscape.org/) -->

<svg
   xmlns:dc="http://purl.org/dc/elements/1.1/"
   xmlns:cc="http://creativecommons.org/ns#"
   xmlns:rdf="http://www.w3.org/1999/02/22-rdf-syntax-ns#"
   xmlns:svg="http://www.w3.org/2000/svg"
   xmlns="http://www.w3.org/2000/svg"
   xmlns:sodipodi="http://sodipodi.sourceforge.net/DTD/sodipodi-0.dtd"
   xmlns:inkscape="http://www.inkscape.org/namespaces/inkscape"
   width="0.33333334in"
   height="0.66667002in"
   viewBox="0 0 8.4666669 16.933419"
   version="1.1"
   id="svg4849"
   inkscape:version="0.92.1 r15371"
   sodipodi:docname="car1.svg">
  <defs
     id="defs4843" />
  <sodipodi:namedview
     id="base"
     pagecolor="#ffffff"
     bordercolor="#666666"
     borderopacity="1.0"
     inkscape:pageopacity="0.0"
     inkscape:pageshadow="2"
     inkscape:zoom="11.2"
     inkscape:cx="20.719351"
     inkscape:cy="29.185066"
     inkscape:document-units="mm"
     inkscape:current-layer="layer1"
     showgrid="false"
     inkscape:window-width="1920"
     inkscape:window-height="1019"
     inkscape:window-x="0"
     inkscape:window-y="26"
     inkscape:window-maximized="1"
     inkscape:snap-global="false"
     units="in" />
  <metadata
     id="metadata4846">
    <rdf:RDF>
      <cc:Work
         rdf:about="">
        <dc:format>image/svg+xml</dc:format>
        <dc:type
           rdf:resource="http://purl.org/dc/dcmitype/StillImage" />
        <dc:title></dc:title>
      </cc:Work>
    </rdf:RDF>
  </metadata>
  <g
     inkscape:label="Calque 1"
     inkscape:groupmode="layer"
     id="layer1"
     transform="translate(0,-280.06659)">
    <g
       id="g4663"
       transform="matrix(1.3487516,0,0,1.3487516,-13.192861,-101.23882)">
      <path
         inkscape:connector-curvature="0"
         id="path176"
         style="fill:#bee71e;fill-opacity:1;fill-rule:nonzero;stroke:none;stroke-width:0.00676672"
         d="m 14.226278,294.69771 -0.272279,0.028 c -0.691579,0.0711 -1.388632,0.0709 -2.080184,-7.2e-4 l -0.260254,-0.0269 c -0.588096,-0.0608 -1.035072,-0.55636 -1.035072,-1.14757 v -8.78015 c 0,-0.7057 0.495899,-1.31423 1.187086,-1.45674 v 0 c 0.761757,-0.15713 1.547596,-0.15713 2.309352,0 v 0 c 0.691146,0.14251 1.187079,0.75104 1.187079,1.45674 v 8.77955 c 0,0.59148 -0.447348,1.0872 -1.035728,1.14763" />
      <path
         inkscape:connector-curvature="0"
         id="path178"
         style="fill:#de7ec7;fill-opacity:1;fill-rule:nonzero;stroke:none;stroke-width:0.00676672"
         d="m 14.164005,294.18398 -0.259301,0.0267 c -0.658592,0.0677 -1.32242,0.0675 -1.980984,-7.2e-4 l -0.247858,-0.0257 c -0.560028,-0.0578 -0.69499,-1.60906 -0.69499,-1.60906 v -4.30116 l -0.290678,-3.30257 c 0,-0.672 0.472216,-1.25157 1.130442,-1.38724 v 0 c 0.725466,-0.14961 1.473771,-0.14961 2.199237,0 v 0 c 0.658233,0.13567 1.130414,0.71524 1.130414,1.38724 l -0.29063,3.30257 v 4.3012 c 0,0 -0.135335,1.551 -0.695652,1.60858" />
      <path
         inkscape:connector-curvature="0"
         id="path180"
         style="fill:#bee71e;fill-opacity:1;fill-rule:nonzero;stroke:none;stroke-width:0.00676672"
         d="m 10.650914,286.41532 v 0.31377 l -0.563987,0.19028 c -0.05577,0.0188 -0.1157241,-0.0143 -0.1293591,-0.0716 v 0 c -0.02221,-0.0929 0.0286,-0.18778 0.1182831,-0.2208 l 0.575063,-0.21166" />
      <path
         inkscape:connector-curvature="0"
         id="path182"
         style="fill:#bee71e;fill-opacity:1;fill-rule:nonzero;stroke:none;stroke-width:0.00676672"
         d="m 15.189534,286.41532 v 0.31377 l 0.564074,0.19028 c 0.05576,0.0188 0.115711,-0.0143 0.129312,-0.0716 v 0 c 0.02219,-0.0929 -0.02862,-0.18778 -0.118282,-0.2208 l -0.575104,-0.21166" />
      <path
         inkscape:connector-curvature="0"
         id="path184"
         style="fill:#313d59;fill-opacity:1;fill-rule:nonzero;stroke:none;stroke-width:0.00676672"
         d="m 10.837871,289.44701 c 0.05205,0.023 0.104593,0.0448 0.157299,0.0662 -1.27e-4,-0.604 -0.0037,-1.09655 -0.0143,-1.23899 -0.0322,-0.43456 -0.273599,-2.12448 -0.273599,-2.12448 0,0 -0.05609,1.74676 -0.05633,3.20946 0.06154,0.0317 0.12463,0.0604 0.186931,0.0878" />
      <path
         inkscape:connector-curvature="0"
         id="path186"
         style="fill:#313d59;fill-opacity:1;fill-rule:nonzero;stroke:none;stroke-width:0.00676672"
         d="m 10.98682,291.67482 c 0.0038,-0.59825 0.0081,-1.39327 0.0083,-2.06852 -0.115745,-0.0273 -0.231388,-0.0547 -0.344041,-0.0908 0.0016,0.7105 0.01445,1.65703 0.02743,2.45341 0.101717,-0.099 0.207975,-0.19387 0.308258,-0.29408" />
      <path
         inkscape:connector-curvature="0"
         id="path188"
         style="fill:#313d59;fill-opacity:1;fill-rule:nonzero;stroke:none;stroke-width:0.00676672"
         d="m 10.681391,292.13861 c 0.01327,0.79299 0.02588,1.39847 0.02588,1.39847 0,0 0.273599,-0.78866 0.273599,-0.96168 0,-0.0487 0.0026,-0.32927 0.0055,-0.78589 -0.11044,0.12464 -0.203482,0.21633 -0.30501,0.3491" />
      <path
         inkscape:connector-curvature="0"
         id="path190"
         style="fill:#313d59;fill-opacity:1;fill-rule:nonzero;stroke:none;stroke-width:0.00676672"
         d="m 15.002638,289.44701 c -0.05204,0.023 -0.104614,0.0448 -0.157327,0.0662 1.37e-4,-0.604 0.0037,-1.09655 0.01435,-1.23899 0.03214,-0.43456 0.273578,-2.12448 0.273578,-2.12448 0,0 0.0561,1.74676 0.0563,3.20946 -0.06151,0.0317 -0.124643,0.0604 -0.186897,0.0878" />
      <path
         inkscape:connector-curvature="0"
         id="path192"
         style="fill:#313d59;fill-opacity:1;fill-rule:nonzero;stroke:none;stroke-width:0.00676672"
         d="m 14.853702,291.67482 c -0.0038,-0.59825 -0.0081,-1.39327 -0.0084,-2.06852 0.115778,-0.0273 0.231421,-0.0547 0.344087,-0.0908 -0.0017,0.7105 -0.01448,1.65703 -0.02747,2.45341 -0.101704,-0.099 -0.207941,-0.19387 -0.308224,-0.29408" />
      <path
         inkscape:connector-curvature="0"
         id="path194"
         style="fill:#313d59;fill-opacity:1;fill-rule:nonzero;stroke:none;stroke-width:0.00676672"
         d="m 15.159084,292.13861 c -0.01326,0.79299 -0.02585,1.39847 -0.02585,1.39847 0,0 -0.273579,-0.78866 -0.273579,-0.96168 0,-0.0487 -0.0026,-0.32927 -0.0055,-0.78589 0.110432,0.12464 0.203475,0.21633 0.304975,0.3491" />
      <path
         inkscape:connector-curvature="0"
         id="path196"
         style="fill:#313d59;fill-opacity:1;fill-rule:nonzero;stroke:none;stroke-width:0.00676672"
         d="m 14.854108,294.06015 c -0.919908,0.43456 -1.933854,0.39836 -1.933854,0.39836 0,0 -1.013952,0.0362 -1.933853,-0.39836 l -0.04795,0.25504 c 0.178973,0.16991 0.412925,0.28352 0.675109,0.31066 l 0.260254,0.0268 c 0.345739,0.0357 0.699273,0.0537 1.046439,0.0538 0.34716,-1.5e-4 0.700694,-0.0181 1.04646,-0.0538 l 0.260228,-0.0268 c 0.262169,-0.0271 0.496163,-0.14075 0.675142,-0.31066 l -0.04798,-0.25504" />
      <path
         inkscape:connector-curvature="0"
         id="path198"
         style="fill:#313d59;fill-opacity:1;fill-rule:nonzero;stroke:none;stroke-width:0.00676672"
         d="m 14.736232,287.34811 c 0.06137,-0.33712 0.0925,-0.85592 0.104207,-1.18621 0.0064,-0.18216 -0.117673,-0.34341 -0.295637,-0.38286 -0.294015,-0.0653 -0.816771,-0.14433 -1.624548,-0.14433 -0.807777,0 -1.330533,0.079 -1.624567,0.14433 -0.177971,0.0394 -0.302019,0.2007 -0.295597,0.38286 0.01168,0.33029 0.04279,0.84909 0.104173,1.18621 0.02249,0.12329 0.134854,0.20916 0.259646,0.19738 0.332943,-0.0315 1.007497,-0.0881 1.556345,-0.0881 0.548842,0 1.223403,0.0566 1.556339,0.0881 0.124778,0.0118 0.237173,-0.0741 0.259639,-0.19738" />
      <path
         inkscape:connector-curvature="0"
         id="path200"
         style="fill:#ffffff;fill-opacity:1;fill-rule:nonzero;stroke:none;stroke-width:0.00676672"
         d="m 11.765575,283.38619 v 0 c -0.306641,0.0633 -0.574698,0.21837 -0.778227,0.4328 0.0052,0.0105 0.01174,0.0202 0.02027,0.0285 0.03904,0.0381 0.103091,0.0386 0.153314,0.0173 0.05024,-0.0212 0.09052,-0.06 0.131998,-0.0955 0.123391,-0.10556 0.266731,-0.18771 0.420227,-0.24076 0.09502,-0.0328 0.196262,-0.0558 0.276908,-0.11591 0.02833,-0.021 0.05318,-0.0487 0.07181,-0.0794 -0.09909,0.0151 -0.1979,0.0326 -0.296308,0.0529" />
      <path
         inkscape:connector-curvature="0"
         id="path202"
         style="fill:#ffffff;fill-opacity:1;fill-rule:nonzero;stroke:none;stroke-width:0.00676672"
         d="m 14.074927,283.38619 v 0 c 0.306661,0.0633 0.574691,0.21837 0.778234,0.4328 -0.0051,0.0105 -0.01171,0.0202 -0.0203,0.0285 -0.03898,0.0381 -0.103057,0.0386 -0.153334,0.0173 -0.05021,-0.0212 -0.09054,-0.06 -0.13195,-0.0955 -0.123358,-0.10556 -0.266738,-0.18771 -0.420234,-0.24076 -0.09502,-0.0328 -0.196262,-0.0558 -0.276908,-0.11591 -0.02833,-0.021 -0.05318,-0.0487 -0.07181,-0.0794 0.0991,0.0151 0.1979,0.0326 0.296308,0.0529" />
    </g>
  </g>
</svg>
