<?xml version="1.0" encoding="UTF-8" standalone="no"?>
<!-- Created with Inkscape (http://www.inkscape.org/) -->

<svg
   xmlns:dc="http://purl.org/dc/elements/1.1/"
   xmlns:cc="http://creativecommons.org/ns#"
   xmlns:rdf="http://www.w3.org/1999/02/22-rdf-syntax-ns#"
   xmlns:svg="http://www.w3.org/2000/svg"
   xmlns="http://www.w3.org/2000/svg"
   xmlns:sodipodi="http://sodipodi.sourceforge.net/DTD/sodipodi-0.dtd"
   xmlns:inkscape="http://www.inkscape.org/namespaces/inkscape"
   width="0.33333334in"
   height="0.66667002in"
   viewBox="0 0 8.4666669 16.933419"
   version="1.1"
   id="svg4849"
   inkscape:version="0.92.1 r15371"
   sodipodi:docname="car4.svg">
  <defs
     id="defs4843" />
  <sodipodi:namedview
     id="base"
     pagecolor="#ffffff"
     bordercolor="#666666"
     borderopacity="1.0"
     inkscape:pageopacity="0.0"
     inkscape:pageshadow="2"
     inkscape:zoom="3.959798"
     inkscape:cx="52.044682"
     inkscape:cy="8.6821211"
     inkscape:document-units="mm"
     inkscape:current-layer="layer1"
     showgrid="false"
     inkscape:window-width="1920"
     inkscape:window-height="1019"
     inkscape:window-x="0"
     inkscape:window-y="26"
     inkscape:window-maximized="1"
     inkscape:snap-global="false"
     units="in" />
  <metadata
     id="metadata4846">
    <rdf:RDF>
      <cc:Work
         rdf:about="">
        <dc:format>image/svg+xml</dc:format>
        <dc:type
           rdf:resource="http://purl.org/dc/dcmitype/StillImage" />
        <dc:title></dc:title>
      </cc:Work>
    </rdf:RDF>
  </metadata>
  <g
     inkscape:label="Calque 1"
     inkscape:groupmode="layer"
     id="layer1"
     transform="translate(0,-280.06659)">
    <g
       transform="matrix(0.00827945,0,0,-0.00892517,-11.886176,302.38151)"
       id="g4787">
      <path
         inkscape:connector-curvature="0"
         id="path150"
         style="fill:#bee71e;fill-opacity:1;fill-rule:nonzero;stroke:none"
         d="m 2260.88,2344.43 c -59.46,48.4 -173.62,84.81 -313.95,84.81 -140.33,0 -254.5,-36.41 -313.96,-84.81 -59.46,-48.39 -35.68,-122.12 -35.68,-414.66 v -925.23 c 0,-159.349 49.95,-275.11 92.76,-301.669 42.82,-26.562 209.31,-28.93 256.88,-28.93 47.57,0 214.06,2.368 256.87,28.93 42.82,26.559 92.76,142.32 92.76,301.669 v 925.23 c 0,292.54 23.79,366.27 -35.68,414.66" />
      <path
         inkscape:connector-curvature="0"
         id="path152"
         style="fill:#de7ec7;fill-opacity:1;fill-rule:nonzero;stroke:none"
         d="m 2225.11,2301.9 c -52.69,42.97 -153.85,75.31 -278.18,75.31 -124.34,0 -225.5,-32.34 -278.18,-75.31 -52.69,-42.97 -31.62,-108.45 -31.62,-368.27 v -821.67 c 0,-141.511 44.26,-244.3 82.19,-267.901 37.94,-23.579 185.46,-25.7 227.61,-25.7 42.15,0 189.67,2.121 227.6,25.7 37.94,23.601 82.19,126.39 82.19,267.901 v 821.67 c 0,259.82 21.08,325.3 -31.61,368.27" />
      <path
         inkscape:connector-curvature="0"
         id="path154"
         style="fill:#ffffff;fill-opacity:1;fill-rule:nonzero;stroke:none"
         d="m 1642.02,2340.66 c -0.11,-13.03 1.07,-26.07 3.63,-38.84 23.13,27.87 63.38,32.4 96.12,47.91 14.3,6.76 27.77,16.18 36.6,29.3 4.49,6.66 7.62,14.38 8.9,22.3 -60.78,-13.96 -110.64,-35.43 -145.25,-60.67" />
      <path
         inkscape:connector-curvature="0"
         id="path156"
         style="fill:#bee71e;fill-opacity:1;fill-rule:nonzero;stroke:none"
         d="m 1613.94,1916.08 c 0,0 -118.92,-23.83 -102.27,-89.51 l 102.27,44.76 v 44.75" />
      <path
         inkscape:connector-curvature="0"
         id="path158"
         style="fill:#313d59;fill-opacity:1;fill-rule:nonzero;stroke:none"
         d="m 1632.97,1916.08 c 0,0 52.33,-133.78 52.33,-409.68 0,-275.91 -52.33,-461.43 -52.33,-461.43 v 871.11" />
      <path
         inkscape:connector-curvature="0"
         id="path160"
         style="fill:#ef2d32;fill-opacity:1;fill-rule:nonzero;stroke:none"
         d="m 1704.71,733.879 c -13.81,4.75 -27.61,9.512 -41.41,14.269 11.11,-18.207 22.74,-31.226 33.89,-38.136 5.08,-3.153 11.95,-5.961 20.11,-8.473 -4.19,10.781 -8.39,21.563 -12.59,32.34" />
      <path
         inkscape:connector-curvature="0"
         id="path162"
         style="fill:#ffffff;fill-opacity:1;fill-rule:nonzero;stroke:none"
         d="m 2251.84,2340.66 c 0.11,-13.03 -1.07,-26.07 -3.64,-38.84 -23.13,27.87 -63.38,32.4 -96.12,47.91 -14.3,6.76 -27.76,16.18 -36.6,29.3 -4.48,6.66 -7.61,14.38 -8.89,22.3 60.77,-13.96 110.63,-35.43 145.25,-60.67" />
      <path
         inkscape:connector-curvature="0"
         id="path164"
         style="fill:#313d59;fill-opacity:1;fill-rule:nonzero;stroke:none"
         d="m 1946.93,2418.54 c -51.59,0 -99.62,-4.94 -142.71,-13.56 v -16.17 c 0,0 80.87,12.52 142.71,12.52 61.84,0 142.7,-12.52 142.7,-12.52 v 16.17 c -43.09,8.62 -91.12,13.56 -142.7,13.56" />
      <path
         inkscape:connector-curvature="0"
         id="path166"
         style="fill:#bee71e;fill-opacity:1;fill-rule:nonzero;stroke:none"
         d="m 2279.91,1916.08 c 0,0 118.93,-23.83 102.28,-89.51 l -102.28,44.76 v 44.75" />
      <path
         inkscape:connector-curvature="0"
         id="path168"
         style="fill:#313d59;fill-opacity:1;fill-rule:nonzero;stroke:none"
         d="m 2260.88,1916.08 c 0,0 -52.32,-133.78 -52.32,-409.68 0,-275.91 52.32,-461.43 52.32,-461.43 v 871.11" />
      <path
         inkscape:connector-curvature="0"
         id="path170"
         style="fill:#313d59;fill-opacity:1;fill-rule:nonzero;stroke:none"
         d="m 2183.58,1042.8 c -2.39,11.62 -13.72,19.11 -25.35,16.79 -40.12,-8.01 -130.86,-24.13 -211.3,-24.13 -80.45,0 -171.18,16.12 -211.3,24.13 -11.64,2.32 -22.96,-5.17 -25.36,-16.79 l -35.18,-170.749 c -2.33,-11.309 4.64,-22.43 15.83,-25.262 37.99,-9.617 128.55,-28.43 256.01,-28.43 127.45,0 218.02,18.813 256,28.43 11.2,2.832 18.16,13.953 15.83,25.262 z m -468.94,720.47 -55.51,249.74 c 0,0 64.22,46.37 287.8,46.37 223.57,0 287.79,-46.37 287.79,-46.37 l -55.5,-249.74 c 0,0 -65.8,36.87 -232.29,36.87 -166.5,0 -232.29,-36.87 -232.29,-36.87" />
      <path
         inkscape:connector-curvature="0"
         id="path172"
         style="fill:#ef2d32;fill-opacity:1;fill-rule:nonzero;stroke:none"
         d="m 2189.15,733.879 c 13.8,4.75 27.6,9.512 41.41,14.269 -11.12,-18.207 -22.74,-31.226 -33.89,-38.136 -5.09,-3.153 -11.96,-5.961 -20.12,-8.473 4.2,10.781 8.4,21.563 12.6,32.34" />
    </g>
  </g>
</svg>
