<?xml version="1.0" encoding="UTF-8" standalone="no"?>
<!-- Created with Inkscape (http://www.inkscape.org/) -->

<svg
   xmlns:dc="http://purl.org/dc/elements/1.1/"
   xmlns:cc="http://creativecommons.org/ns#"
   xmlns:rdf="http://www.w3.org/1999/02/22-rdf-syntax-ns#"
   xmlns:svg="http://www.w3.org/2000/svg"
   xmlns="http://www.w3.org/2000/svg"
   xmlns:sodipodi="http://sodipodi.sourceforge.net/DTD/sodipodi-0.dtd"
   xmlns:inkscape="http://www.inkscape.org/namespaces/inkscape"
   width="0.33333334in"
   height="0.66667002in"
   viewBox="0 0 8.4666669 16.933419"
   version="1.1"
   id="svg4849"
   inkscape:version="0.92.1 r15371"
   sodipodi:docname="car4.svg">
  <defs
     id="defs4843" />
  <sodipodi:namedview
     id="base"
     pagecolor="#ffffff"
     bordercolor="#666666"
     borderopacity="1.0"
     inkscape:pageopacity="0.0"
     inkscape:pageshadow="2"
     inkscape:zoom="11.2"
     inkscape:cx="31.845952"
     inkscape:cy="33.615723"
     inkscape:document-units="mm"
     inkscape:current-layer="layer1"
     showgrid="false"
     inkscape:window-width="1920"
     inkscape:window-height="1019"
     inkscape:window-x="0"
     inkscape:window-y="26"
     inkscape:window-maximized="1"
     inkscape:snap-global="false"
     units="in" />
  <metadata
     id="metadata4846">
    <rdf:RDF>
      <cc:Work
         rdf:about="">
        <dc:format>image/svg+xml</dc:format>
        <dc:type
           rdf:resource="http://purl.org/dc/dcmitype/StillImage" />
        <dc:title></dc:title>
      </cc:Work>
    </rdf:RDF>
  </metadata>
  <g
     inkscape:label="Calque 1"
     inkscape:groupmode="layer"
     id="layer1"
     transform="translate(0,-280.06659)">
    <g
       id="g4554"
       transform="matrix(1.0214612,0,0,1.0214612,-9.6709337,-6.7381162)">
      <path
         inkscape:connector-curvature="0"
         id="path18"
         style="fill:#bee71e;fill-opacity:1;fill-rule:nonzero;stroke:none;stroke-width:0.00873058"
         d="m 15.88021,296.47692 v 0 c -1.486295,0.39471 -3.049943,0.39471 -4.536325,0 v 0 c -0.453467,-0.12039 -0.769164,-1.46534 -0.769164,-1.93461 v -10.7181 c 0,-0.6355 0.387026,-1.82993 0.977301,-2.06566 v 0 c 1.322596,-0.5282 2.797541,-0.5282 4.120225,0 v 0 c 0.5901,0.23573 0.977302,1.43016 0.977302,2.06566 v 10.7181 c 0,0.46927 -0.315786,1.81422 -0.769339,1.93461" />
      <path
         inkscape:connector-curvature="0"
         id="path20"
         style="fill:#de7ec7;fill-opacity:1;fill-rule:nonzero;stroke:none;stroke-width:0.00873058"
         d="m 15.666485,296.33775 v 0 c -1.346256,0.3873 -2.762444,0.3873 -4.108787,0 v 0 c -0.410775,-0.1182 -0.536757,-1.00174 -0.536757,-1.46219 l 0.348437,-6.45548 -0.508469,-4.49739 c 0,-0.62354 0.35062,-1.79553 0.885281,-2.02681 v 0 c 1.197924,-0.51833 2.533879,-0.51833 3.731889,0 v 0 c 0.534573,0.23128 0.885194,1.40327 0.885194,2.02681 l -0.508557,4.49739 0.319365,6.56182 c 0,0.46045 -0.09682,1.23765 -0.507596,1.35585" />
      <path
         inkscape:connector-curvature="0"
         id="path22"
         style="fill:#bee71e;fill-opacity:1;fill-rule:nonzero;stroke:none;stroke-width:0.00873058"
         d="m 10.642645,285.92819 -0.619348,0.35036 c -0.1048552,0.0594 -0.1697232,0.1706 -0.1697232,0.29116 v 0 c 0,0.0482 0.04583,0.0832 0.09228,0.0705 l 0.6967892,-0.1898 v -0.52227" />
      <path
         inkscape:connector-curvature="0"
         id="path24"
         style="fill:#313d59;fill-opacity:1;fill-rule:nonzero;stroke:none;stroke-width:0.00873058"
         d="m 11.03814,289.79287 c 0.07639,0.0655 0.149118,0.13402 0.220273,0.20412 -0.03108,-2.85315 -0.418457,-4.0688 -0.418457,-4.0688 0,0 -0.119347,0.69661 -0.124498,3.57387 0.100314,0.10633 0.217129,0.20036 0.322682,0.29081" />
      <path
         inkscape:connector-curvature="0"
         id="path26"
         style="fill:#313d59;fill-opacity:1;fill-rule:nonzero;stroke:none;stroke-width:0.00873058"
         d="m 10.717029,290.06317 c 0.02541,2.84748 0.333159,4.91873 0.333159,4.91873 0,0 0.205431,-1.4711 0.210058,-4.51319 -0.185088,-0.12957 -0.365462,-0.26585 -0.543217,-0.40554" />
      <path
         inkscape:connector-curvature="0"
         id="path28"
         style="fill:#bee71e;fill-opacity:1;fill-rule:nonzero;stroke:none;stroke-width:0.00873058"
         d="m 16.581538,285.92819 0.61926,0.35036 c 0.105029,0.0594 0.169897,0.1706 0.169897,0.29116 v 0 c 0,0.0482 -0.04583,0.0832 -0.09228,0.0705 l -0.696875,-0.1898 v -0.52227" />
      <path
         inkscape:connector-curvature="0"
         id="path30"
         style="fill:#313d59;fill-opacity:1;fill-rule:nonzero;stroke:none;stroke-width:0.00873058"
         d="m 13.612091,292.32396 c -0.996771,0 -1.822161,-0.17139 -1.822161,-0.17139 l -0.451632,2.97469 c 0,0 0.513969,0.28034 2.273793,0.28034 1.759824,0 2.273794,-0.28034 2.273794,-0.28034 l -0.451634,-2.97469 c 0,0 -0.825389,0.17139 -1.82216,0.17139 z m -2.242713,-4.89027 -0.218002,-2.91234 c 0,0 0.872185,-0.46727 2.460715,-0.46727 1.58853,0 2.460628,0.46727 2.460628,0.46727 l -0.218003,2.91234 c 0,0 -0.918806,-0.17129 -2.242625,-0.17129 -1.323819,0 -2.242713,0.17129 -2.242713,0.17129" />
      <path
         inkscape:connector-curvature="0"
         id="path32"
         style="fill:#313d59;fill-opacity:1;fill-rule:nonzero;stroke:none;stroke-width:0.00873058"
         d="m 16.185955,289.79287 c -0.07639,0.0655 -0.149118,0.13402 -0.220098,0.20412 0.03091,-2.85315 0.418456,-4.0688 0.418456,-4.0688 0,0 0.11926,0.69661 0.124412,3.57387 -0.100315,0.10633 -0.217218,0.20036 -0.32277,0.29081" />
      <path
         inkscape:connector-curvature="0"
         id="path34"
         style="fill:#313d59;fill-opacity:1;fill-rule:nonzero;stroke:none;stroke-width:0.00873058"
         d="m 16.507153,290.06317 c -0.02541,2.84748 -0.333072,4.91873 -0.333072,4.91873 0,0 -0.205431,-1.4711 -0.210232,-4.51319 0.185176,-0.12957 0.365549,-0.26585 0.543304,-0.40554" />
      <path
         inkscape:connector-curvature="0"
         id="path36"
         style="fill:#313d59;fill-opacity:1;fill-rule:nonzero;stroke:none;stroke-width:0.00873058"
         d="m 14.774917,289.99699 h -2.325653 c -0.189191,0 -0.342675,-0.1533 -0.342675,-0.34259 v -0.89174 c 0,-0.18928 0.153484,-0.34258 0.342675,-0.34258 h 2.325653 c 0.18928,0 0.342676,0.1533 0.342676,0.34258 v 0.89174 c 0,0.18929 -0.153396,0.34259 -0.342676,0.34259" />
      <path
         inkscape:connector-curvature="0"
         id="path38"
         style="fill:#ffffff;fill-opacity:1;fill-rule:nonzero;stroke:none;stroke-width:0.00873058"
         d="m 11.667353,281.87869 v 0 c -0.284529,0.11366 -0.519033,0.46376 -0.680374,0.85882 0.06461,0.0981 0.151825,0.18099 0.256068,0.23564 0.0743,-0.29535 0.164048,-0.61472 0.409464,-0.7951 0.120482,-0.0886 0.267593,-0.13401 0.393226,-0.2152 0.09988,-0.0646 0.189017,-0.16623 0.20805,-0.27904 -0.198185,0.0531 -0.393925,0.11804 -0.586434,0.19488" />
      <path
         inkscape:connector-curvature="0"
         id="path40"
         style="fill:#ffffff;fill-opacity:1;fill-rule:nonzero;stroke:none;stroke-width:0.00873058"
         d="m 15.556742,281.87869 v 0 c 0.284704,0.11366 0.51912,0.46376 0.680461,0.85882 -0.06461,0.0981 -0.151825,0.18099 -0.256067,0.23564 -0.07421,-0.29535 -0.164049,-0.61472 -0.409378,-0.7951 -0.120569,-0.0886 -0.26768,-0.13401 -0.3934,-0.2152 -0.09979,-0.0646 -0.18893,-0.16623 -0.207963,-0.27904 0.198185,0.0531 0.393924,0.11804 0.586347,0.19488" />
      <path
         inkscape:connector-curvature="0"
         id="path42"
         style="fill:#f9dd27;fill-opacity:1;fill-rule:nonzero;stroke:none;stroke-width:0.00873058"
         d="m 16.011605,296.06667 c -0.03056,-0.0273 -0.07814,-0.005 -0.112887,0.0168 -0.388772,0.24558 -0.84416,0.38466 -1.303738,0.39793 -0.06138,0.002 -0.131133,0.005 -0.170595,0.0521 -0.02558,0.0303 -0.03099,0.0704 -0.02951,0.11096 0.499739,-0.0445 0.996771,-0.13121 1.485335,-0.26095 v 0 c 0.05291,-0.014 0.103806,-0.0449 0.152523,-0.0888 0.0026,-0.0535 0.003,-0.10704 6.81e-4,-0.16055 -9.9e-4,-0.0243 -0.0036,-0.0513 -0.02182,-0.0675" />
      <path
         inkscape:connector-curvature="0"
         id="path44"
         style="fill:#f9dd27;fill-opacity:1;fill-rule:nonzero;stroke:none;stroke-width:0.00873058"
         d="m 12.629289,296.48137 c -0.459752,-0.0132 -0.915053,-0.15235 -1.303913,-0.39794 -0.03466,-0.0219 -0.08224,-0.0441 -0.112711,-0.0168 -0.01825,0.0163 -0.02096,0.0432 -0.02191,0.0675 -0.0023,0.0535 -0.0019,0.10704 6.08e-4,0.16055 0.0488,0.0439 0.09979,0.0747 0.152523,0.0888 v 0 c 0.488652,0.12973 0.985596,0.21652 1.485422,0.26096 0.0015,-0.0406 -0.004,-0.0807 -0.02942,-0.11097 -0.03955,-0.047 -0.109307,-0.0503 -0.170596,-0.0521" />
    </g>
  </g>
</svg>
