<?xml version="1.0" encoding="UTF-8" standalone="no"?>
<!-- Created with Inkscape (http://www.inkscape.org/) -->

<svg
   xmlns:dc="http://purl.org/dc/elements/1.1/"
   xmlns:cc="http://creativecommons.org/ns#"
   xmlns:rdf="http://www.w3.org/1999/02/22-rdf-syntax-ns#"
   xmlns:svg="http://www.w3.org/2000/svg"
   xmlns="http://www.w3.org/2000/svg"
   xmlns:sodipodi="http://sodipodi.sourceforge.net/DTD/sodipodi-0.dtd"
   xmlns:inkscape="http://www.inkscape.org/namespaces/inkscape"
   width="0.33333334in"
   height="1in"
   viewBox="0 0 8.4666669 25.400001"
   version="1.1"
   id="svg4849"
   inkscape:version="0.92.1 r15371"
   sodipodi:docname="truck.svg">
  <defs
     id="defs4843" />
  <sodipodi:namedview
     id="base"
     pagecolor="#ffffff"
     bordercolor="#666666"
     borderopacity="1.0"
     inkscape:pageopacity="0.0"
     inkscape:pageshadow="2"
     inkscape:zoom="7.9195959"
     inkscape:cx="-16.669729"
     inkscape:cy="44.230603"
     inkscape:document-units="mm"
     inkscape:current-layer="layer1"
     showgrid="false"
     inkscape:window-width="1920"
     inkscape:window-height="1019"
     inkscape:window-x="0"
     inkscape:window-y="26"
     inkscape:window-maximized="1"
     inkscape:snap-global="false"
     units="in" />
  <metadata
     id="metadata4846">
    <rdf:RDF>
      <cc:Work
         rdf:about="">
        <dc:format>image/svg+xml</dc:format>
        <dc:type
           rdf:resource="http://purl.org/dc/dcmitype/StillImage" />
        <dc:title />
      </cc:Work>
    </rdf:RDF>
  </metadata>
  <g
     inkscape:label="Calque 1"
     inkscape:groupmode="layer"
     id="layer1"
     transform="translate(0,-271.60001)">
    <path
       d="m 7.0734473,272.60847 c 0,0.17294 -0.06957,0.32739 -0.155679,0.32739 h -5.294471 c -0.08602,0 -0.155677,-0.15445 -0.155677,-0.32739 0,-0.17311 0.06965,-0.3274 0.155677,-0.3274 h 5.294471 c 0.0861,0 0.155679,0.15429 0.155679,0.3274"
       style="display:inline;fill:#091019;fill-opacity:1;fill-rule:nonzero;stroke:none;stroke-width:0.0081849"
       id="path270-0"
       inkscape:connector-curvature="0" />
    <path
       d="m 5.4573433,272.44476 h -2.373618 v -0.10969 h 2.373618 v 0.10969"
       style="display:inline;fill:#ffffff;fill-opacity:1;fill-rule:nonzero;stroke:none;stroke-width:0.00547084"
       id="path272-6"
       inkscape:connector-curvature="0" />
    <path
       d="m 7.0124693,278.50158 v -5.27859 c 0,-0.40589 -0.271411,-0.70922 -0.440675,-0.70922 h -4.609725 c -0.184978,0 -0.474477,0.32019 -0.474477,0.73722 v 5.25059 h 5.524877"
       style="display:inline;fill:#de7ec7;fill-opacity:1;fill-rule:nonzero;stroke:none;stroke-width:0.0081849"
       id="path274-2"
       inkscape:connector-curvature="0" />
    <path
       d="m 4.2323913,274.62514 c -0.546911,0 -1.702863,0.12317 -2.184871,0.37103 l 0.765777,2.19583 h 1.419094 1.419014 l 0.765861,-2.19583 c -0.482009,-0.24784 -1.638042,-0.37103 -2.184875,-0.37103"
       style="display:inline;fill:#040606;fill-opacity:1;fill-rule:nonzero;stroke:none;stroke-width:0.0081849"
       id="path276-6"
       inkscape:connector-curvature="0" />
    <path
       d="m 2.5364023,277.37502 -0.680409,-1.83743 v 2.71845 h 0.652007 l 0.02841,-0.88102"
       style="display:inline;fill:#040606;fill-opacity:1;fill-rule:nonzero;stroke:none;stroke-width:0.0081849"
       id="path278-1"
       inkscape:connector-curvature="0" />
    <path
       d="m 6.0103943,277.37502 0.674679,-1.83743 v 2.71845 h -0.640875 l -0.03381,-0.88102"
       style="display:inline;fill:#040606;fill-opacity:1;fill-rule:nonzero;stroke:none;stroke-width:0.0081849"
       id="path280-8"
       inkscape:connector-curvature="0" />
    <path
       d="m 3.3292713,273.6725 h 1.964373 v -0.24555 h -1.964373 z"
       style="display:inline;fill:#bee71e;fill-opacity:1;fill-rule:nonzero;stroke:none;stroke-width:0.0081849"
       id="path282-7"
       inkscape:connector-curvature="0" />
    <path
       d="m 3.3292713,273.9999 h 1.964373 v -0.24556 h -1.964373 z"
       style="display:inline;fill:#bee71e;fill-opacity:1;fill-rule:nonzero;stroke:none;stroke-width:0.0081849"
       id="path284-9"
       inkscape:connector-curvature="0" />
    <path
       d="m 3.3292713,274.3273 h 1.964373 v -0.24556 h -1.964373 z"
       style="display:inline;fill:#bee71e;fill-opacity:1;fill-rule:nonzero;stroke:none;stroke-width:0.0081849"
       id="path286-2"
       inkscape:connector-curvature="0" />
    <path
       d="m 7.0124693,279.07452 h -5.565719 v -0.57294 h 5.565719 v 0.57294"
       style="display:inline;fill:#091019;fill-opacity:1;fill-rule:nonzero;stroke:none;stroke-width:0.0081849"
       id="path288-0"
       inkscape:connector-curvature="0" />
    <path
       d="m 5.7028883,279.56562 h -2.946558 v -0.57295 h 2.946558 v 0.57295"
       style="display:inline;fill:#091019;fill-opacity:1;fill-rule:nonzero;stroke:none;stroke-width:0.0081849"
       id="path290-2"
       inkscape:connector-curvature="0" />
    <path
       d="m 0.8738073,295.90969 h 6.793454 v -16.42594 h -6.793454 z"
       style="display:inline;fill:#bee71e;fill-opacity:1;fill-rule:nonzero;stroke:none;stroke-width:0.00745356"
       id="path292-3"
       inkscape:connector-curvature="0" />
    <g
       id="g4506"
       style="fill:#bee71e;fill-opacity:1">
      <path
         inkscape:connector-curvature="0"
         id="path294-7"
         style="display:inline;fill:#bee71e;fill-opacity:1;fill-rule:nonzero;stroke:none;stroke-width:0.00742728"
         d="m 1.2012043,295.5823 h 6.138659 v -15.77116 h -6.138659 z" />
    </g>
    <path
       d="m 7.3398633,295.58229 h -6.138659 l 6.138659,-15.77115 v 15.77115"
       style="display:inline;fill:#de7ec7;fill-opacity:1;fill-rule:nonzero;stroke:none;stroke-width:0.00742728"
       id="path296-5"
       inkscape:connector-curvature="0" />
    <path
       d="m 7.6672613,296.31895 h -6.793454 v -0.40926 h 6.793454 v 0.40926"
       style="display:inline;fill:#091019;fill-opacity:1;fill-rule:nonzero;stroke:none;stroke-width:0.0081849"
       id="path298-9"
       inkscape:connector-curvature="0" />
    <path
       d="m 1.7741453,296.31895 h -0.900338 v -0.40926 h 0.900338 v 0.40926"
       style="display:inline;fill:#f68420;fill-opacity:1;fill-rule:nonzero;stroke:none;stroke-width:0.0081849"
       id="path300"
       inkscape:connector-curvature="0" />
    <path
       d="m 7.6672613,296.31895 h -0.900338 v -0.40926 h 0.900338 v 0.40926"
       style="display:inline;fill:#f68420;fill-opacity:1;fill-rule:nonzero;stroke:none;stroke-width:0.0081849"
       id="path302"
       inkscape:connector-curvature="0" />
    <path
       d="m 1.8225846,275.49355 c -0.04019,-0.24489 -0.252258,-0.43191 -0.508444,-0.43191 H 0.87264861 c -0.2561875,0 -0.4682585,0.18702 -0.5084467,0.43191 H 1.8225846"
       style="display:inline;fill:#de7ec7;fill-opacity:1;fill-rule:nonzero;stroke:none;stroke-width:0.0081849"
       id="path304"
       inkscape:connector-curvature="0" />
    <path
       d="M 8.102465,275.49355 C 8.062285,275.24866 7.850207,275.06164 7.59402,275.06164 H 7.152527 c -0.256186,0 -0.468258,0.18702 -0.508444,0.43191 h 1.458382"
       style="display:inline;fill:#de7ec7;fill-opacity:1;fill-rule:nonzero;stroke:none;stroke-width:0.0081849"
       id="path306"
       inkscape:connector-curvature="0" />
    <g
       id="g4556"
       transform="translate(0.00388343,-0.13363477)">
      <path
         sodipodi:nodetypes="ccc"
         inkscape:connector-curvature="0"
         id="path144"
         style="fill:#ffffff;fill-opacity:1;fill-rule:nonzero;stroke:none;stroke-width:0.0110747"
         d="m 5.6896008,272.70999 c 0.201791,-0.007 0.5930488,-0.004 0.8258935,-0.008 0.1966184,-0.004 0.4051691,0.35094 0.4295855,0.58398" />
      <path
         sodipodi:nodetypes="ccc"
         inkscape:connector-curvature="0"
         id="path144-3"
         style="fill:#ffffff;fill-opacity:1;fill-rule:nonzero;stroke:none;stroke-width:0.0110747"
         d="m 2.8194123,272.71003 c -0.201791,-0.007 -0.5930488,-0.004 -0.8258935,-0.008 -0.1966184,-0.004 -0.4051691,0.35094 -0.4295855,0.58398" />
    </g>
  </g>
</svg>
