<?xml version="1.0" encoding="UTF-8" standalone="no"?>
<!-- Created with Inkscape (http://www.inkscape.org/) -->

<svg
   xmlns:dc="http://purl.org/dc/elements/1.1/"
   xmlns:cc="http://creativecommons.org/ns#"
   xmlns:rdf="http://www.w3.org/1999/02/22-rdf-syntax-ns#"
   xmlns:svg="http://www.w3.org/2000/svg"
   xmlns="http://www.w3.org/2000/svg"
   xmlns:sodipodi="http://sodipodi.sourceforge.net/DTD/sodipodi-0.dtd"
   xmlns:inkscape="http://www.inkscape.org/namespaces/inkscape"
   width="0.33333334in"
   height="0.66667002in"
   viewBox="0 0 8.4666669 16.933419"
   version="1.1"
   id="svg4849"
   inkscape:version="0.92.1 r15371"
   sodipodi:docname="car3.svg">
  <defs
     id="defs4843" />
  <sodipodi:namedview
     id="base"
     pagecolor="#ffffff"
     bordercolor="#666666"
     borderopacity="1.0"
     inkscape:pageopacity="0.0"
     inkscape:pageshadow="2"
     inkscape:zoom="11.2"
     inkscape:cx="14.115893"
     inkscape:cy="33.002687"
     inkscape:document-units="mm"
     inkscape:current-layer="layer1"
     showgrid="false"
     inkscape:window-width="1920"
     inkscape:window-height="1019"
     inkscape:window-x="0"
     inkscape:window-y="26"
     inkscape:window-maximized="1"
     inkscape:snap-global="false"
     units="in" />
  <metadata
     id="metadata4846">
    <rdf:RDF>
      <cc:Work
         rdf:about="">
        <dc:format>image/svg+xml</dc:format>
        <dc:type
           rdf:resource="http://purl.org/dc/dcmitype/StillImage" />
        <dc:title />
      </cc:Work>
    </rdf:RDF>
  </metadata>
  <g
     inkscape:label="Calque 1"
     inkscape:groupmode="layer"
     id="layer1"
     transform="translate(0,-280.06659)">
    <g
       id="g4633"
       transform="matrix(0.96987157,0,0,0.96987157,0.48600082,8.6959885)">
      <path
         inkscape:connector-curvature="0"
         id="path206-3"
         style="fill:#bee71e;fill-opacity:1;fill-rule:nonzero;stroke:none;stroke-width:0.00877218"
         d="m 6.6575979,280.84177 c -0.4172928,-0.43817 -1.5022451,-0.75116 -2.7938436,-0.75116 -1.2916075,0 -2.376542,0.31299 -2.7938436,0.75116 -0.41729264,0.43809 -0.54246284,3.13229 -0.54246284,6.63616 v 6.11201 c 0,1.77338 0.1251702,2.85833 0.27120959,3.00447 0.14608296,0.14609 1.49829725,0.37553 3.06509685,0.37553 1.5667906,0 2.9190221,-0.22944 3.065079,-0.37553 0.1460568,-0.14614 0.2712362,-1.23109 0.2712362,-3.00447 v -6.11201 c 0,-3.50387 -0.1251794,-6.19807 -0.5424716,-6.63616" />
      <path
         inkscape:connector-curvature="0"
         id="path208-6"
         style="fill:#de7ec7;fill-opacity:1;fill-rule:nonzero;stroke:none;stroke-width:0.00877218"
         d="m 6.4479427,281.39206 c -0.3859762,-0.40686 -1.3895313,-0.69739 -2.5841884,-0.69739 -1.1946661,0 -2.1981859,0.29053 -2.584162,0.69739 -0.38601129,0.40668 0.1828124,2.2055 0.1828124,5.45857 v 4.72005 c 0,1.64645 0.160908,3.53798 0.2960258,3.6736 0.1351093,0.13563 0.6561328,0.40072 2.1053238,0.40072 1.4492258,0 1.9702233,-0.26509 2.1053149,-0.40072 0.1350917,-0.13562 0.2960612,-2.02715 0.2960612,-3.6736 v -4.72005 c 0,-3.25307 0.5687882,-5.05189 0.1828123,-5.45857" />
      <path
         inkscape:connector-curvature="0"
         id="path210-7"
         style="fill:#ffffff;fill-opacity:1;fill-rule:nonzero;stroke:none;stroke-width:0.00877218"
         d="m 0.87607185,281.61127 c 0.0242199,0.0296 0.0553349,0.0531 0.0914854,0.0477 0.0472554,-0.007 0.0712742,-0.0591 0.0897832,-0.10316 0.1710225,-0.40826 0.5563144,-0.71941 0.9913532,-0.80081 -0.015519,-0.11018 -0.031106,-0.22036 -0.046669,-0.33054 -0.3883712,0.12711 -0.6905373,0.29194 -0.8695073,0.47984 -0.1022138,0.10737 -0.18685672,0.35027 -0.25644656,0.70695" />
      <path
         inkscape:connector-curvature="0"
         id="path212-5"
         style="fill:#313d59;fill-opacity:1;fill-rule:nonzero;stroke:none;stroke-width:0.00877218"
         d="m 1.4624047,288.37208 v -1.52145 c 0,-0.35466 -0.68460759,-1.89856 -0.68460759,-1.89856 v 3.20386 c 0.22382239,0.084 0.45529379,0.14685 0.68460759,0.21615" />
      <path
         inkscape:connector-curvature="0"
         id="path214-3"
         style="fill:#313d59;fill-opacity:1;fill-rule:nonzero;stroke:none;stroke-width:0.00877218"
         d="m 1.4624047,291.2155 v -2.55719 c -0.2290768,0.008 -0.4601626,-0.0102 -0.68460759,-0.0517 v 3.06518 C 1.0099177,291.526 1.2294592,291.35951 1.4624047,291.21547" />
      <path
         inkscape:connector-curvature="0"
         id="path216-5"
         style="fill:#313d59;fill-opacity:1;fill-rule:nonzero;stroke:none;stroke-width:0.00877218"
         d="m 0.77779711,292.26246 v 3.37887 l 0.68460759,-0.50749 c 0,0 0,-1.70145 0,-3.56316 -0.2447353,0.21219 -0.46517135,0.45229 -0.68460759,0.69178" />
      <path
         inkscape:connector-curvature="0"
         id="path218-6"
         style="fill:#bee71e;fill-opacity:1;fill-rule:nonzero;stroke:none;stroke-width:0.00877218"
         d="m 0.65261806,285.34331 c 0,0 -0.66764197,0.0677 -0.70934507,0.56844 l 0.83452412,-0.17589 -0.12517905,-0.39255" />
      <path
         inkscape:connector-curvature="0"
         id="path220-2"
         style="fill:#ef2d32;fill-opacity:1;fill-rule:nonzero;stroke:none;stroke-width:0.00877218"
         d="M 4.4603592,295.645 H 3.2671405 v 0 c 0,-0.0969 0.078608,-0.17551 0.1754788,-0.17551 h 0.8422611 c 0.096941,0 0.1754788,0.0786 0.1754788,0.17551 v 0" />
      <path
         inkscape:connector-curvature="0"
         id="path222-9"
         style="fill:#ef2d32;fill-opacity:1;fill-rule:nonzero;stroke:none;stroke-width:0.00877218"
         d="m 1.3882445,296.42432 c 0.00521,-0.004 0.010421,-0.008 0.015631,-0.0127 -0.128916,-0.0282 -0.2608407,-0.0577 -0.3719317,-0.12876 -0.11112609,-0.0712 -0.19894446,-0.19367 -0.1911723,-0.32547 0,0 -0.10488888,0.17791 -4.7248e-4,0.34487 0.10444159,0.16691 0.54794558,0.12209 0.54794558,0.12209" />
      <path
         inkscape:connector-curvature="0"
         id="path224-1"
         style="fill:#ffffff;fill-opacity:1;fill-rule:nonzero;stroke:none;stroke-width:0.00877218"
         d="m 6.8514626,281.61127 c -0.024299,0.0296 -0.055352,0.0531 -0.091493,0.0477 -0.047282,-0.007 -0.071318,-0.0591 -0.089828,-0.10316 -0.1709696,-0.40826 -0.5563317,-0.71941 -0.9913355,-0.80081 0.015519,-0.11018 0.031132,-0.22036 0.046659,-0.33054 0.3883444,0.12711 0.6905462,0.29194 0.8694988,0.47984 0.1021957,0.10737 0.1868473,0.35027 0.2564981,0.70695" />
      <path
         inkscape:connector-curvature="0"
         id="path226-2"
         style="fill:#313d59;fill-opacity:1;fill-rule:nonzero;stroke:none;stroke-width:0.00877218"
         d="m 6.2651304,288.37208 v -1.52145 c 0,-0.35466 0.6845812,-1.89856 0.6845812,-1.89856 v 3.20386 c -0.2237789,0.084 -0.4552764,0.14685 -0.6845812,0.21615" />
      <path
         inkscape:connector-curvature="0"
         id="path228-7"
         style="fill:#313d59;fill-opacity:1;fill-rule:nonzero;stroke:none;stroke-width:0.00877218"
         d="m 6.2651304,291.2155 v -2.55719 c 0.2290417,0.008 0.4601011,-0.0102 0.6845812,-0.0517 v 3.06518 C 6.7175996,291.526 6.4980318,291.35951 6.2651304,291.21547" />
      <path
         inkscape:connector-curvature="0"
         id="path230-0"
         style="fill:#313d59;fill-opacity:1;fill-rule:nonzero;stroke:none;stroke-width:0.00877218"
         d="m 6.9497116,292.26246 v 3.37887 l -0.6845812,-0.50749 c 0,0 0,-1.70145 0,-3.56316 0.2447439,0.21219 0.4651012,0.45229 0.6845812,0.69178" />
      <path
         inkscape:connector-curvature="0"
         id="path232-9"
         style="fill:#313d59;fill-opacity:1;fill-rule:nonzero;stroke:none;stroke-width:0.00877218"
         d="m 6.5342609,295.99746 -0.5651917,-0.40887 c 0,0 -0.8097425,0.20441 -2.1053149,0.20441 -1.2955814,0 -2.1053238,-0.20441 -2.1053238,-0.20441 l -0.5652267,0.40887 c 0.9578784,0.40448 2.6704801,0.3674 2.6705505,0.3674 6.15e-5,0 1.7126632,0.0371 2.6705066,-0.3674 z m -4.8592713,-9.58491 c 0,0 -0.6050789,-1.60654 -0.4590307,-2.21164 0.1460392,-0.60502 1.352214,-1.00152 2.6477954,-1.00152 1.2955724,0 2.5017299,0.3965 2.6477867,1.00152 0.1460569,0.6051 -0.4590485,2.21164 -0.4590485,2.21164 0,0 -1.1683581,-0.28405 -2.1887382,-0.28405 -1.0203892,0 -2.1887647,0.28405 -2.1887647,0.28405" />
      <path
         inkscape:connector-curvature="0"
         id="path234-3"
         style="fill:#bee71e;fill-opacity:1;fill-rule:nonzero;stroke:none;stroke-width:0.00877218"
         d="m 7.0748901,285.34331 c 0,0 0.6676509,0.0677 0.7093191,0.56844 l -0.8344976,-0.17589 0.1251785,-0.39255" />
      <path
         inkscape:connector-curvature="0"
         id="path236-6"
         style="fill:#ef2d32;fill-opacity:1;fill-rule:nonzero;stroke:none;stroke-width:0.00877218"
         d="m 6.3392553,296.42432 c -0.00518,-0.004 -0.010439,-0.008 -0.015613,-0.0127 0.1288633,-0.0282 0.2607969,-0.0577 0.3719403,-0.12876 0.111056,-0.0712 0.1989531,-0.19367 0.1911456,-0.32547 0,0 0.1049155,0.17791 4.725e-4,0.34487 -0.1043891,0.16691 -0.5479105,0.12209 -0.5479105,0.12209" />
    </g>
  </g>
</svg>
