<?xml version="1.0" encoding="UTF-8" standalone="no"?>
<!-- Generator: Adobe Illustrator 18.0.0, SVG Export Plug-In . SVG Version: 6.00 Build 0)  -->

<svg
   xmlns:dc="http://purl.org/dc/elements/1.1/"
   xmlns:cc="http://creativecommons.org/ns#"
   xmlns:rdf="http://www.w3.org/1999/02/22-rdf-syntax-ns#"
   xmlns:svg="http://www.w3.org/2000/svg"
   xmlns="http://www.w3.org/2000/svg"
   xmlns:sodipodi="http://sodipodi.sourceforge.net/DTD/sodipodi-0.dtd"
   xmlns:inkscape="http://www.inkscape.org/namespaces/inkscape"
   version="1.1"
   id="Capa_1"
   x="0px"
   y="0px"
   viewBox="0 0 31.99968 31.99968"
   xml:space="preserve"
   sodipodi:docname="brontosaurus.svg"
   inkscape:version="0.92.1 r15371"
   width="0.33333001in"
   height="0.33333001in"><metadata
     id="metadata59"><rdf:RDF><cc:Work
         rdf:about=""><dc:format>image/svg+xml</dc:format><dc:type
           rdf:resource="http://purl.org/dc/dcmitype/StillImage" /><dc:title></dc:title></cc:Work></rdf:RDF></metadata><defs
     id="defs57" /><sodipodi:namedview
     pagecolor="#ffffff"
     bordercolor="#666666"
     borderopacity="1"
     objecttolerance="10"
     gridtolerance="10"
     guidetolerance="10"
     inkscape:pageopacity="0"
     inkscape:pageshadow="2"
     inkscape:window-width="1920"
     inkscape:window-height="1019"
     id="namedview55"
     showgrid="false"
     inkscape:zoom="0.49845184"
     inkscape:cx="244.75785"
     inkscape:cy="386.19579"
     inkscape:window-x="0"
     inkscape:window-y="26"
     inkscape:window-maximized="1"
     inkscape:current-layer="Capa_1"
     units="in" /><g
     id="g22"
     transform="matrix(0.06758691,0,0,0.06758691,-1.6086963e-4,-1.7791202e-4)"><path
       style="fill:#dd8d6b"
       d="m 0,334.671 c 0,0 109.734,-18.106 136.07,-14.814 0,0 1.064,4.796 6.847,8.943 4.181,2.985 10.853,5.641 21.376,5.86 0.461,0.011 0.933,0.011 1.405,0.011 20.016,0 57.775,5.07 87.754,3.654 5.794,-0.274 11.303,-0.79 16.329,-1.646 3.182,-0.527 6.189,-1.185 8.943,-2.008 0,0 2.743,-0.055 7.166,-0.68 6.891,-0.966 17.865,-3.281 28.937,-8.833 12.356,-6.2 24.833,-16.427 31.933,-33.283 l 21.727,-16.899 c 9.701,-7.55 16.603,-18.117 19.609,-30.045 10.568,-41.94 28.421,-110.129 38.769,-124.241 0,0 7.133,-22.496 19.752,-31.274 l 14.265,1.097 5.487,-4.938 2.215,0.246 c 1.617,0.18 3.162,-0.72 3.803,-2.216 l 0.777,-1.814 c 0.778,-1.815 -0.003,-3.928 -1.785,-4.779 -4.781,-2.283 -13.568,-7.14 -17.081,-13.385 0,0 -0.011,0 -0.022,0.011 -0.7,0.115 -14.554,2.657 -24.486,8.305 -2.451,1.394 -4.49,3.4 -5.947,5.814 -7.329,12.139 -33.509,56.585 -41.969,85.728 0,0 -20.85,76.814 -87.787,73.522 0,0 -57.062,-10.973 -104.248,-6.584 0,0 -48.283,14.265 -85.593,40.602 0,0 -32.821,28.125 -78.01,51.421 -8.36,4.313 -17.15,8.45 -26.236,12.225 z"
       id="path2"
       inkscape:connector-curvature="0" /><path
       style="fill:#bf7156"
       d="m 26.237,322.446 c 54.867,-7.133 118.568,-74.487 178.417,-76.112 34.621,-0.944 91.628,17.74 138.814,-7.133 33.268,-17.537 55.769,-99.909 72.79,-129.486 22.313,-38.773 37.152,-45.737 38.019,-46.077 -0.7,0.115 -14.559,2.658 -24.49,8.308 -2.448,1.393 -4.484,3.396 -5.94,5.807 -7.325,12.133 -33.51,56.586 -41.972,85.732 0,0 -19.315,71.161 -80.45,73.563 -4.02,0.158 -8.041,-0.198 -12.007,-0.871 -14.554,-2.473 -60.46,-9.392 -99.578,-5.753 0,0 -48.283,14.265 -85.593,40.602 0.001,-0.001 -32.821,28.124 -78.01,51.42 z"
       id="path4"
       inkscape:connector-curvature="0" /><path
       style="fill:#bf7156"
       d="m 314.827,325.157 c -1.756,-6.782 5.048,-18.468 5.048,-18.468 l -20.85,-20.849 -13.135,48.151 c 6.892,-0.966 17.865,-3.282 28.937,-8.834 z"
       id="path6"
       inkscape:connector-curvature="0" /><path
       style="fill:#bf7156"
       d="m 246.353,326.441 7.1,11.873 v 0.011 c 5.794,-0.274 11.303,-0.79 16.329,-1.646 l -4.225,-35.477 -7.681,-3.841 z"
       id="path8"
       inkscape:connector-curvature="0" /><path
       style="fill:#bf7156"
       d="m 198.07,294.618 c 0,0 5.027,31.018 11.566,42.668 l -18.167,-1.296 z"
       id="path10"
       inkscape:connector-curvature="0" /><path
       style="fill:#bf7156"
       d="m 142.918,328.8 c 4.181,2.985 10.853,5.641 21.376,5.86 l -14.507,-37.299 c 0,0 -1.657,27.752 -6.858,31.428 z"
       id="path12"
       inkscape:connector-curvature="0" /><path
       style="fill:#dd8d6b"
       d="m 257.876,297.361 -3.841,24.142 10.973,12.619 4.389,47.734 2.195,27.982 h 34.566 l -3.841,-15.363 -6.035,-4.938 c 0,0 -1.646,-31.274 1.097,-46.088 2.743,-14.814 15.363,-34.566 15.363,-34.566 l -13.717,-23.044 z"
       id="path14"
       inkscape:connector-curvature="0" /><path
       style="fill:#dd8d6b"
       d="m 149.787,297.361 c 0,32.372 10.425,52.124 10.425,52.124 -9.327,4.389 -14.814,38.407 -14.814,38.407 l -4.389,20.301 h 43.894 l -6.584,-14.265 h -6.035 c 0,0 7.681,-18.655 12.619,-29.628 4.938,-10.973 13.717,-15.363 13.717,-15.363 l 3.292,-15.363 -3.841,-38.956 z"
       id="path16"
       inkscape:connector-curvature="0" /><polygon
       style="fill:#bf7156"
       points="446.618,89.415 460.884,90.512 466.371,85.574 451.37,83.741 "
       id="polygon18" /><polygon
       style="fill:#4d4d4d"
       points="456.129,71.674 452.837,68.382 448.813,72.772 "
       id="polygon20" /></g><g
     id="g24"
     transform="translate(0,-441.46637)" /><g
     id="g26"
     transform="translate(0,-441.46637)" /><g
     id="g28"
     transform="translate(0,-441.46637)" /><g
     id="g30"
     transform="translate(0,-441.46637)" /><g
     id="g32"
     transform="translate(0,-441.46637)" /><g
     id="g34"
     transform="translate(0,-441.46637)" /><g
     id="g36"
     transform="translate(0,-441.46637)" /><g
     id="g38"
     transform="translate(0,-441.46637)" /><g
     id="g40"
     transform="translate(0,-441.46637)" /><g
     id="g42"
     transform="translate(0,-441.46637)" /><g
     id="g44"
     transform="translate(0,-441.46637)" /><g
     id="g46"
     transform="translate(0,-441.46637)" /><g
     id="g48"
     transform="translate(0,-441.46637)" /><g
     id="g50"
     transform="translate(0,-441.46637)" /><g
     id="g52"
     transform="translate(0,-441.46637)" /></svg>