<?xml version="1.0" encoding="UTF-8" standalone="no"?>
<!-- Generator: Adobe Illustrator 18.0.0, SVG Export Plug-In . SVG Version: 6.00 Build 0)  -->

<svg
   xmlns:dc="http://purl.org/dc/elements/1.1/"
   xmlns:cc="http://creativecommons.org/ns#"
   xmlns:rdf="http://www.w3.org/1999/02/22-rdf-syntax-ns#"
   xmlns:svg="http://www.w3.org/2000/svg"
   xmlns="http://www.w3.org/2000/svg"
   xmlns:sodipodi="http://sodipodi.sourceforge.net/DTD/sodipodi-0.dtd"
   xmlns:inkscape="http://www.inkscape.org/namespaces/inkscape"
   version="1.1"
   id="Capa_1"
   x="0px"
   y="0px"
   viewBox="0 0 31.999683 31.999683"
   xml:space="preserve"
   sodipodi:docname="elasmosaurus.svg"
   width="0.33333001in"
   height="0.33333001in"
   inkscape:version="0.92.1 r15371"><metadata
     id="metadata87"><rdf:RDF><cc:Work
         rdf:about=""><dc:format>image/svg+xml</dc:format><dc:type
           rdf:resource="http://purl.org/dc/dcmitype/StillImage" /><dc:title></dc:title></cc:Work></rdf:RDF></metadata><defs
     id="defs85" /><sodipodi:namedview
     pagecolor="#ffffff"
     bordercolor="#666666"
     borderopacity="1"
     objecttolerance="10"
     gridtolerance="10"
     guidetolerance="10"
     inkscape:pageopacity="0"
     inkscape:pageshadow="2"
     inkscape:window-width="1920"
     inkscape:window-height="1019"
     id="namedview83"
     showgrid="false"
     units="in"
     inkscape:zoom="0.51830542"
     inkscape:cx="-162.06661"
     inkscape:cy="227.66499"
     inkscape:window-x="0"
     inkscape:window-y="26"
     inkscape:window-maximized="1"
     inkscape:current-layer="Capa_1" /><g
     id="g50"
     transform="matrix(0.0702787,0,0,0.0702787,-1.5997595e-4,-1.6318282e-4)"><path
       style="fill:#9dbfd6"
       d="m 415.8,171.799 c 4,16.01 2.84,37.8 0.38,56.77 -3.6,27.9 -17.85,53.33 -39.68,71.06 -15.08,12.26 -29.52,22.98 -29.52,22.98 -21.96,17.57 -95.16,23.42 -95.16,23.42 -41,-4.39 -84.92,-16.1 -84.92,-16.1 0,0 13.18,-5.86 -43.92,-16.11 -29.96,-5.38 -62.34,5.77 -86.35,17.58 -21.42,10.53 -36.17,21.6 -36.63,21.94 33.67,-51.24 86.37,-101.01 86.37,-101.01 17.53,-13.63 34.44,-24.57 49.82,-33.29 11.04,-6.25 21.29,-11.36 30.42,-15.5 2.24,-1.02 4.42,-1.98 6.52,-2.88 22.2,-9.51 36.23,-12.75 36.23,-12.75 1.73,-0.04 3.45,-0.07 5.14,-0.09 13.6,-0.15 26.11,0.37 37.32,1.27 10.89,0.87 20.55,2.1 28.81,3.41 20.8,3.3 32.68,7.12 32.68,7.12 1.64,0.77 3.22,1.59 4.75,2.46 5.97,3.39 11.06,7.46 15.22,11.46 1.45,1.37 2.78,2.75 4,4.08 5.85,6.37 15.77,6.68 21.88,0.57 l 0.2,-0.2 c 3.46,-3.46 5.11,-8.38 4.29,-13.21 -1.84,-10.65 -5.92,-20.1 -9.89,-27.3 -9.93,-18.02 -13.53,-38.86 -9.71,-59.07 0.78,-4.16 1.47,-6.64 1.47,-6.64 13.18,-27.81 54.17,-39.53 54.17,-39.53 29.29,2.93 54.18,24.89 54.18,24.89 l 1.46,19.04 c -23.43,11.71 -57.1,14.64 -57.1,14.64 -5.86,4.39 17.57,40.99 17.57,40.99 z"
       id="path2"
       inkscape:connector-curvature="0" /><path
       style="fill:#83aec6"
       d="m 416.18,228.579 c -2.98,23.11 -13.28,44.54 -29.16,61.29 -3.27,3.46 -6.78,6.72 -10.52,9.76 -6.15,5 -12.19,9.74 -17.18,13.6 -7.27,5.61 -12.34,9.38 -12.34,9.38 -3.05,2.44 -7.09,4.65 -11.78,6.66 -6.22,2.66 -13.6,4.95 -21.36,6.9 h -0.01 c -28.48,7.18 -62.01,9.86 -62.01,9.86 -18.94,-2.02 -38.5,-5.62 -54.07,-8.9 -0.07,-0.01 -0.13,-0.02 -0.19,-0.04 l -0.13,-0.02 c -16.39,-3.46 -28.28,-6.55 -30.24,-7.07 l -0.29,-0.07 0.01,-0.01 c 0.16,-0.07 1.47,-0.73 1.28,-1.93 -0.33,-2.16 -5.57,-6.11 -31.58,-11.54 -4.03,-0.84 -8.55,-1.72 -13.63,-2.63 -5.27,-0.95 -10.62,-1.38 -15.98,-1.39 -25.12,-0.05 -50.58,9.24 -70.37,18.97 1.26,-1.36 53.54,-57.07 124.41,-54.18 71.74,2.93 101.6,31.7 161.05,21.96 87.9,-14.4 96.26,-106.41 93.71,-127.38 4,16.01 2.84,37.8 0.38,56.78 z"
       id="path4"
       inkscape:connector-curvature="0" /><polygon
       style="fill:#769cad"
       points="184.468,303.572 200.99,327.779 197.752,337.134 166.9,329.929 "
       id="polygon6" /><path
       style="fill:#769cad"
       d="m 150.79,293.319 -14.18,23.13 c -4.03,-0.84 -8.55,-1.72 -13.63,-2.63 -5.27,-0.95 -10.62,-1.38 -15.98,-1.39 z"
       id="path8"
       inkscape:connector-curvature="0" /><path
       style="fill:#769cad"
       d="m 335.2,329.269 c -6.22,2.66 -13.6,4.95 -21.36,6.9 h -0.01 l 8.26,-20.88 z"
       id="path10"
       inkscape:connector-curvature="0" /><path
       style="fill:#769cad"
       d="m 387.02,289.869 c -3.27,3.46 -6.78,6.72 -10.52,9.76 -6.15,5 -12.19,9.74 -17.18,13.6 l -3.55,-12.59 z"
       id="path12"
       inkscape:connector-curvature="0" /><path
       style="fill:#83aec6"
       d="m 150.794,293.323 c 0,0 -62.957,51.244 -74.67,83.454 0,0 11.713,5.856 45.388,-1.464 33.675,-7.321 68.813,-49.78 68.813,-49.78 l -5.856,-21.962 z"
       id="path14"
       inkscape:connector-curvature="0" /><path
       style="fill:#83aec6"
       d="m 355.77,300.644 c 30.746,5.856 64.421,33.675 64.421,33.675 7.356,11.317 9.901,23.726 10.255,34.694 0.383,11.856 -13.511,18.474 -22.521,10.758 -17.437,-14.931 -38.977,-26.419 -38.977,-26.419 l -24.89,-2.928 c -10.249,-8.785 -21.962,-35.139 -21.962,-35.139 z"
       id="path16"
       inkscape:connector-curvature="0" /><polygon
       style="fill:#83aec6"
       points="215.99,215.779 222.99,229.779 198.99,232.779 173.99,226.779 195.99,211.779 "
       id="polygon18" /><path
       style="fill:#83aec6"
       d="m 225.07,198.769 -22.94,5.51 -29,-3.62 c 22.2,-9.51 36.23,-12.75 36.23,-12.75 1.73,-0.04 3.45,-0.07 5.14,-0.09 z"
       id="path20"
       inkscape:connector-curvature="0" /><polygon
       style="fill:#83aec6"
       points="264.99,216.779 238.99,217.779 225.99,210.779 229.99,199.779 259.99,202.779 "
       id="polygon22" /><polygon
       style="fill:#83aec6"
       points="144.244,243.206 129.796,247.857 121.392,245.969 121.909,239.161 139.233,236.128 "
       id="polygon24" /><polygon
       style="fill:#83aec6"
       points="286.49,237.779 270.49,243.779 246.49,237.779 255.49,227.779 275.49,224.779 "
       id="polygon26" /><polygon
       style="fill:#83aec6"
       points="150.49,245.821 162.849,250.455 181.388,245.821 174.436,238.096 158.987,235.779 "
       id="polygon28" /><path
       style="fill:#83aec6"
       d="m 174.49,210.279 -4.5,8.5 -25.5,7 -8.3,-6.74 c 11.04,-6.25 21.29,-11.36 30.42,-15.5 z"
       id="path30"
       inkscape:connector-curvature="0" /><path
       style="fill:#83aec6"
       d="m 280.63,192.499 -7.14,4.28 -13.5,-0.5 -8.17,-7.19 c 10.89,0.87 20.55,2.1 28.81,3.41 z"
       id="path32"
       inkscape:connector-curvature="0" /><polygon
       style="fill:#83aec6"
       points="279.49,214.279 295.49,224.279 308.99,212.279 294.99,202.779 279.99,204.779 "
       id="polygon34" /><polygon
       style="fill:#83aec6"
       points="219.49,242.779 232.99,237.279 245.49,246.279 239.49,249.279 "
       id="polygon36" /><polygon
       style="fill:#83aec6"
       points="191.99,253.779 205.49,247.779 219.49,255.279 204.99,258.279 "
       id="polygon38" /><polygon
       style="fill:#83aec6"
       points="311.49,230.779 322.49,225.279 336.99,233.779 317.49,239.779 "
       id="polygon40" /><polygon
       style="fill:#83aec6"
       points="296.99,240.279 285.49,249.279 297.99,253.779 309.49,248.279 "
       id="polygon42" /><path
       style="fill:#83aec6"
       d="m 333.28,213.539 -17.79,1.74 2.57,-13.2 c 5.97,3.39 11.06,7.46 15.22,11.46 z"
       id="path44"
       inkscape:connector-curvature="0" /><path
       style="fill:#4d4d4d"
       d="m 397.926,90.273 c 0,0 0.824,-2.472 9.064,-5.494 0,0 5.494,0.824 7.966,5.494 z"
       id="path46"
       inkscape:connector-curvature="0" /><polyline
       style="fill:#83aec6"
       points="454.451,104.705 411.49,115.779 390.49,109.779 411.49,122.779 454.8,109.255  "
       id="polyline48" /></g><g
     id="g52"
     transform="translate(0,-423.33026)" /><g
     id="g54"
     transform="translate(0,-423.33026)" /><g
     id="g56"
     transform="translate(0,-423.33026)" /><g
     id="g58"
     transform="translate(0,-423.33026)" /><g
     id="g60"
     transform="translate(0,-423.33026)" /><g
     id="g62"
     transform="translate(0,-423.33026)" /><g
     id="g64"
     transform="translate(0,-423.33026)" /><g
     id="g66"
     transform="translate(0,-423.33026)" /><g
     id="g68"
     transform="translate(0,-423.33026)" /><g
     id="g70"
     transform="translate(0,-423.33026)" /><g
     id="g72"
     transform="translate(0,-423.33026)" /><g
     id="g74"
     transform="translate(0,-423.33026)" /><g
     id="g76"
     transform="translate(0,-423.33026)" /><g
     id="g78"
     transform="translate(0,-423.33026)" /><g
     id="g80"
     transform="translate(0,-423.33026)" /></svg>