<?xml version="1.0" encoding="UTF-8" standalone="no"?>
<!-- Generator: Adobe Illustrator 18.0.0, SVG Export Plug-In . SVG Version: 6.00 Build 0)  -->

<svg
   xmlns:dc="http://purl.org/dc/elements/1.1/"
   xmlns:cc="http://creativecommons.org/ns#"
   xmlns:rdf="http://www.w3.org/1999/02/22-rdf-syntax-ns#"
   xmlns:svg="http://www.w3.org/2000/svg"
   xmlns="http://www.w3.org/2000/svg"
   xmlns:sodipodi="http://sodipodi.sourceforge.net/DTD/sodipodi-0.dtd"
   xmlns:inkscape="http://www.inkscape.org/namespaces/inkscape"
   version="1.1"
   id="Capa_1"
   x="0px"
   y="0px"
   viewBox="0 0 192 192"
   xml:space="preserve"
   sodipodi:docname="ichthyosaurus.svg"
   inkscape:version="0.92.1 r15371"
   width="2in"
   height="2in"><metadata
     id="metadata57"><rdf:RDF><cc:Work
         rdf:about=""><dc:format>image/svg+xml</dc:format><dc:type
           rdf:resource="http://purl.org/dc/dcmitype/StillImage" /><dc:title></dc:title></cc:Work></rdf:RDF></metadata><defs
     id="defs55" /><sodipodi:namedview
     pagecolor="#ffffff"
     bordercolor="#666666"
     borderopacity="1"
     objecttolerance="10"
     gridtolerance="10"
     guidetolerance="10"
     inkscape:pageopacity="0"
     inkscape:pageshadow="2"
     inkscape:window-width="1920"
     inkscape:window-height="1019"
     id="namedview53"
     showgrid="false"
     inkscape:zoom="0.50954642"
     inkscape:cx="235.50357"
     inkscape:cy="231.57851"
     inkscape:window-x="0"
     inkscape:window-y="26"
     inkscape:window-maximized="1"
     inkscape:current-layer="Capa_1"
     units="in" /><g
     id="g20"
     transform="matrix(0.41454592,0,0,0.41454592,-7.7826475e-7,-1.2960768e-4)"><path
       style="fill:#c9d0d6"
       d="m 462.37,221.189 c -1.39,3.58 -4.49,6.22 -8.25,7.05 l -48.69,10.66 c -9.39,2.06 -18.08,6.35 -25.64,12.26 -22.86,17.87 -54.65,27 -88.38,30.92 -5.13,0.59 -10.31,1.07 -15.51,1.44 -3.83,0.27 -7.66,0.48 -11.5,0.64 -13.97,0.58 -27.96,0.46 -41.49,-0.14 -37.12,-1.63 -70.75,-6.79 -91.02,-10.42 -14.24,-2.57 -45.08,-7.39 -71.98,-11.46 -12.42,-1.89 -24.02,-3.61 -32.74,-4.88 -0.13,-0.72 -0.31,-1.43 -0.49,-2.14 0.5,-1.91 0.86,-3.88 1.06,-5.9 9.13,-3.59 18.42,-7.63 27.13,-11.65 23.58,-10.84 42.85,-21.37 42.85,-21.37 16.36,-12.73 32.14,-22.95 46.5,-31.08 10.31,-5.83 19.88,-10.61 28.4,-14.48 2.09,-0.95 4.12,-1.84 6.08,-2.68 14.2,-6.08 24.82,-9.41 30.1,-10.91 -3.89,-16.57 -11.59,-29.01 -11.59,-29.01 33.72,4 54.95,29.11 54.95,29.11 10.16,0.82 19.18,1.97 26.89,3.19 11.74,1.87 32.45,6.59 46.98,10.04 10.5,2.49 19.73,8.75 25.95,17.57 l 8.12,11.54 c 0,0 54.59,-1.45 85.75,2.69 5.03,0.68 9.73,2.87 13.5,6.27 2.34,2.09 3.65,4.99 3.79,7.99 0.09,1.59 -0.17,3.21 -0.77,4.75 z"
       id="path2"
       inkscape:connector-curvature="0" /><path
       style="fill:#c9d0d6"
       d="M 62.462,255.121 59.113,262.14 54.072,272.668 35.793,303.133 0,335.119 C 0.444,334.489 26.679,294.157 26.681,255.121 26.684,214.807 0.441,175.75 0,175.123 l 35.792,31.985 18.279,30.465 z"
       id="path4"
       inkscape:connector-curvature="0" /><circle
       style="fill:#4d4d4d"
       cx="324.66699"
       cy="192.625"
       r="6.8590002"
       id="circle6" /><path
       style="fill:#9aa5ad"
       d="m 271.796,278.933 -7.396,5.224 c -13.969,0.583 -27.961,0.457 -41.485,-0.137 v -0.011 l 12.015,-8.791 4.916,-13.615 z"
       id="path8"
       inkscape:connector-curvature="0" /><path
       style="fill:#9aa5ad"
       d="m 291.412,282.076 c -5.133,0.594 -10.311,1.074 -15.512,1.44 l 5.899,-12.872 8.414,-5.796 c -0.001,10e-4 3.097,8.655 1.199,17.228 z"
       id="path10"
       inkscape:connector-curvature="0" /><path
       style="fill:#c9d0d6"
       d="m 290.211,264.848 c -4.671,24.524 -37.516,57.479 -37.516,57.479 -9.026,5.867 -18.925,7.897 -27.673,8.179 -9.457,0.305 -14.735,-10.777 -8.581,-17.964 11.91,-13.908 21.073,-31.089 21.073,-31.089 L 239.85,261.6 c 7.006,-8.174 50.361,3.248 50.361,3.248 z"
       id="path12"
       inkscape:connector-curvature="0" /><polygon
       style="fill:#9aa5ad"
       points="119.471,271.788 137.992,248.911 102.828,268.779 "
       id="polygon14" /><path
       style="fill:#c9d0d6"
       d="m 137.992,248.911 c 0,0 -31.047,25.271 -36.824,41.156 0,0 5.776,2.888 22.383,-0.722 16.607,-3.61 33.935,-24.549 33.935,-24.549 l -2.888,-10.83 z"
       id="path16"
       inkscape:connector-curvature="0" /><path
       style="fill:#9aa5ad"
       d="m 462.37,221.189 -38.86,8.28 -25,-3 -30.5,13 -50,-8 -21,3 21,-10 48.5,6.5 31.5,-12.5 25,5 40.13,-7.03 c 0.09,1.59 -0.17,3.21 -0.77,4.75 z"
       id="path18"
       inkscape:connector-curvature="0" /></g><g
     id="g22"
     transform="translate(0,-271.15698)" /><g
     id="g24"
     transform="translate(0,-271.15698)" /><g
     id="g26"
     transform="translate(0,-271.15698)" /><g
     id="g28"
     transform="translate(0,-271.15698)" /><g
     id="g30"
     transform="translate(0,-271.15698)" /><g
     id="g32"
     transform="translate(0,-271.15698)" /><g
     id="g34"
     transform="translate(0,-271.15698)" /><g
     id="g36"
     transform="translate(0,-271.15698)" /><g
     id="g38"
     transform="translate(0,-271.15698)" /><g
     id="g40"
     transform="translate(0,-271.15698)" /><g
     id="g42"
     transform="translate(0,-271.15698)" /><g
     id="g44"
     transform="translate(0,-271.15698)" /><g
     id="g46"
     transform="translate(0,-271.15698)" /><g
     id="g48"
     transform="translate(0,-271.15698)" /><g
     id="g50"
     transform="translate(0,-271.15698)" /></svg>