<?xml version="1.0" encoding="UTF-8" standalone="no"?>
<!-- Generator: Adobe Illustrator 18.0.0, SVG Export Plug-In . SVG Version: 6.00 Build 0)  -->

<svg
   xmlns:dc="http://purl.org/dc/elements/1.1/"
   xmlns:cc="http://creativecommons.org/ns#"
   xmlns:rdf="http://www.w3.org/1999/02/22-rdf-syntax-ns#"
   xmlns:svg="http://www.w3.org/2000/svg"
   xmlns="http://www.w3.org/2000/svg"
   xmlns:sodipodi="http://sodipodi.sourceforge.net/DTD/sodipodi-0.dtd"
   xmlns:inkscape="http://www.inkscape.org/namespaces/inkscape"
   version="1.1"
   id="Capa_1"
   x="0px"
   y="0px"
   viewBox="0 0 191.99999 191.99999"
   xml:space="preserve"
   sodipodi:docname="parasaurolophus-big.svg"
   width="2in"
   height="2in"
   inkscape:version="0.92.1 r15371"><metadata
     id="metadata69"><rdf:RDF><cc:Work
         rdf:about=""><dc:format>image/svg+xml</dc:format><dc:type
           rdf:resource="http://purl.org/dc/dcmitype/StillImage" /><dc:title></dc:title></cc:Work></rdf:RDF></metadata><defs
     id="defs67" /><sodipodi:namedview
     pagecolor="#ffffff"
     bordercolor="#666666"
     borderopacity="1"
     objecttolerance="10"
     gridtolerance="10"
     guidetolerance="10"
     inkscape:pageopacity="0"
     inkscape:pageshadow="2"
     inkscape:window-width="1920"
     inkscape:window-height="1019"
     id="namedview65"
     showgrid="false"
     units="in"
     inkscape:zoom="0.5"
     inkscape:cx="-163.68432"
     inkscape:cy="229.9375"
     inkscape:window-x="0"
     inkscape:window-y="26"
     inkscape:window-maximized="1"
     inkscape:current-layer="Capa_1" /><g
     id="g32"
     transform="matrix(0.41750472,0,0,0.41750472,-9.3327193e-7,19.017357)"><path
       style="fill:#9fa396"
       d="m 274.737,251.664 c 0,0 -1.873,26.259 -12.261,48.226 l -24.988,27.345 c -3.665,4.011 -8.37,6.916 -13.592,8.414 -14.416,4.136 -43.965,14.044 -46.428,26.363 l 11.443,35.148 h 20.435 l 4.904,17.165 H 175.015 L 150.493,359.56 188.91,317.056 178.284,296.621 c 0,0 -3.27,-34.33 1.635,-53.13"
       id="path2"
       inkscape:connector-curvature="0" /><path
       style="fill:#ba8e88"
       d="m 376.195,69.858 c 0,0 -72.854,-36.011 -135.539,-20.37 -9.276,2.314 -17.184,8.631 -20.999,17.397 -0.496,1.14 -0.923,2.317 -1.248,3.516 -2.617,9.595 21.781,12.051 28.378,3.682 6.597,-8.369 16.195,-22.19 50.188,-0.703 6.905,4.367 10.38,11.1 11.537,19.066"
       id="path4"
       inkscape:connector-curvature="0" /><path
       style="fill:#d2d8ca"
       d="m 459.753,145.627 -1.149,11.392 c -10.826,9.588 -26.925,14.541 -26.925,14.541 -20.144,-19.188 -60.102,-19.237 -60.507,-19.237 l -23.516,13.242 c 0,0 -4.034,45.426 -31.29,92.287 -5.665,9.723 -12.334,19.519 -20.169,28.972 -0.785,0.956 -1.594,1.9 -2.403,2.844 -0.49,0.589 -1.005,1.177 -1.52,1.766 -6.608,7.504 -13.781,13.131 -21.236,17.239 -16.282,9.012 -33.95,10.777 -50.159,9.183 -13.867,-1.361 -26.667,-5.174 -36.66,-9.024 -12.715,-4.892 -20.868,-9.833 -20.868,-9.833 0,0 -19.593,-14.357 -37.531,-19.421 -2.734,-0.785 -5.419,-1.336 -7.994,-1.594 C 98.307,276.022 82.588,301.549 65.742,322.025 48.884,342.513 0,354.847 0,354.847 21.885,341.434 34.6,313.148 34.6,313.148 39.799,281.564 54.352,249.11 67.729,224.38 c 13.646,-25.257 26.079,-42.471 26.079,-42.471 3.261,-3.543 7.075,-6.768 11.268,-9.711 10.924,-7.663 24.411,-13.328 37.346,-17.459 24.142,-7.724 46.334,-10.091 46.334,-10.091 5.873,0.454 11.844,1.667 17.729,3.372 0.012,0 0.012,0 0.012,0 30.824,8.926 59.257,31.486 59.257,31.486 13.94,-48.712 50.085,-97.645 50.085,-97.645 6.903,-4.414 15.755,-7.234 24.534,-9.012 18.048,-3.666 35.814,-2.992 35.814,-2.992 25.245,8.534 47.143,26.091 62.31,40.951 6.602,6.469 11.936,12.427 15.724,16.91 4.2,4.97 6.185,11.434 5.532,17.909 z"
       id="path6"
       inkscape:connector-curvature="0" /><path
       style="fill:#c6b1ac"
       d="m 438.496,110.808 c -8.509,8.999 -31.339,25.601 -53.408,25.601 -36.206,0 -45.782,-20.427 -45.782,-20.427 -28.359,12.665 -42.472,48.957 -47.903,67.079 -3.237,10.79 -10.973,19.654 -21.236,24.289 -0.294,0.135 -0.601,0.27 -0.895,0.405 -8.117,3.58 -17.202,4.095 -25.772,1.827 -23.553,-6.229 -61.942,-8.595 -61.942,-8.595 -43.33,13.082 -53.138,42.508 -53.138,42.508 0,0 -5.395,19.348 -2.599,36.084 -2.734,-0.785 -5.419,-1.336 -7.994,-1.594 C 98.308,276.023 82.589,301.55 65.743,322.026 48.884,342.513 0,354.847 0,354.847 c 21.885,-13.413 34.6,-41.699 34.6,-41.699 10.532,-63.842 59.207,-131.24 59.207,-131.24 27.673,-30.076 94.948,-37.261 94.948,-37.261 36.672,2.869 76.998,34.858 76.998,34.858 13.94,-48.712 50.085,-97.645 50.085,-97.645 21.064,-13.487 60.348,-12.003 60.348,-12.003 25.246,8.533 47.144,26.091 62.31,40.951 z"
       id="path8"
       inkscape:connector-curvature="0" /><path
       style="fill:#b3b7ac"
       d="m 220.879,317.844 v 0.012 c -13.867,-1.361 -26.667,-5.174 -36.66,-9.024 l 38.094,-49.129 c 0,0 7.639,36.869 -1.434,58.141 z"
       id="path10"
       inkscape:connector-curvature="0" /><path
       style="fill:#d2d8ca"
       d="m 223.241,251.664 c 0,0 -1.873,26.259 -12.261,48.226 l -24.988,27.345 c -3.665,4.011 -8.37,6.916 -13.592,8.414 -14.416,4.136 -43.965,14.044 -46.428,26.363 l 11.443,35.148 h 20.435 l 4.904,17.165 H 123.52 L 98.998,359.56 137.415,317.056 126.789,296.621 c 0,0 -3.27,-34.33 1.635,-53.13"
       id="path12"
       inkscape:connector-curvature="0" /><path
       style="fill:#b3b7ac"
       d="m 293.794,289.669 c -0.49,0.589 -1.005,1.177 -1.52,1.766 -6.608,7.504 -13.781,13.131 -21.236,17.239 -4.353,-19.777 -17.557,-37.396 -17.557,-37.396 l 22.486,-36.868 z"
       id="path14"
       inkscape:connector-curvature="0" /><path
       style="fill:#b3b7ac"
       d="m 316.366,257.852 c -5.665,9.723 -12.334,19.519 -20.169,28.972 l -13.83,-32.565 24.252,-16.491 4.622,9.612 z"
       id="path16"
       inkscape:connector-curvature="0" /><path
       style="fill:#d2d8ca"
       d="m 277.431,226.684 c 0,0 -3.106,22.69 -13.935,40.495 0,0 29.413,37.254 25.9,69.15 l 15.283,11.397 v 0 c 7.442,-5.6 11.562,-14.592 10.874,-23.88 -1.339,-18.081 -5.309,-47.564 -17.081,-61.361 0,0 13.755,-14.224 17.99,-23.656"
       id="path18"
       inkscape:connector-curvature="0" /><path
       style="fill:#ba8e88"
       d="m 206.485,148.019 c -1.017,0.13 -51.171,6.382 -67.867,42.327 -1.938,4.173 -4.887,7.841 -8.836,10.202 -3.278,1.959 -7.59,3.592 -12.727,3.418 -9.809,-0.331 4.071,-27.648 25.368,-49.227 24.142,-7.724 46.334,-10.091 46.334,-10.091 5.871,0.453 11.842,1.667 17.728,3.371 z"
       id="path20"
       inkscape:connector-curvature="0" /><path
       style="fill:#ba8e88"
       d="m 88.129,224.917 c 0.157,2.501 -0.121,5.017 -1.073,7.335 -1.753,4.268 -5.644,9.711 -14.031,9.183 -4.782,-0.307 -5.885,-7.638 -5.297,-17.055 13.646,-25.257 26.079,-42.471 26.079,-42.471 3.261,-3.543 7.075,-6.768 11.268,-9.711 -7.26,14.428 -17.856,38.24 -16.946,52.719 z"
       id="path22"
       inkscape:connector-curvature="0" /><path
       style="fill:#b3b7ac"
       d="m 371.172,152.323 c 0,0 -24.96,4.216 -40.853,-5.897 l 17.337,19.139 z"
       id="path24"
       inkscape:connector-curvature="0" /><path
       style="fill:#ba8e88"
       d="m 459.753,145.627 -1.149,11.392 C 439.146,113.665 340.373,72.861 340.373,72.861 v -0.012 c 18.048,-3.666 35.814,-2.992 35.814,-2.992 25.245,8.534 47.143,26.091 62.31,40.951 6.602,6.469 11.936,12.427 15.724,16.91 4.2,4.97 6.185,11.434 5.532,17.909 z"
       id="path26"
       inkscape:connector-curvature="0" /><circle
       style="fill:#666666"
       cx="391.134"
       cy="110.293"
       r="7.3559999"
       id="circle28" /><polygon
       style="fill:#b3b7ac"
       points="393.258,142.952 411.24,155.621 439.134,152.862 452.681,161.534 458.604,157.019 439.849,148.673 411.24,150.308 "
       id="polygon30" /></g><g
     id="g34"
     transform="translate(0,-267.87503)" /><g
     id="g36"
     transform="translate(0,-267.87503)" /><g
     id="g38"
     transform="translate(0,-267.87503)" /><g
     id="g40"
     transform="translate(0,-267.87503)" /><g
     id="g42"
     transform="translate(0,-267.87503)" /><g
     id="g44"
     transform="translate(0,-267.87503)" /><g
     id="g46"
     transform="translate(0,-267.87503)" /><g
     id="g48"
     transform="translate(0,-267.87503)" /><g
     id="g50"
     transform="translate(0,-267.87503)" /><g
     id="g52"
     transform="translate(0,-267.87503)" /><g
     id="g54"
     transform="translate(0,-267.87503)" /><g
     id="g56"
     transform="translate(0,-267.87503)" /><g
     id="g58"
     transform="translate(0,-267.87503)" /><g
     id="g60"
     transform="translate(0,-267.87503)" /><g
     id="g62"
     transform="translate(0,-267.87503)" /></svg>