<?xml version="1.0" encoding="UTF-8" standalone="no"?>
<!-- Generator: Adobe Illustrator 18.0.0, SVG Export Plug-In . SVG Version: 6.00 Build 0)  -->

<svg
   xmlns:dc="http://purl.org/dc/elements/1.1/"
   xmlns:cc="http://creativecommons.org/ns#"
   xmlns:rdf="http://www.w3.org/1999/02/22-rdf-syntax-ns#"
   xmlns:svg="http://www.w3.org/2000/svg"
   xmlns="http://www.w3.org/2000/svg"
   xmlns:sodipodi="http://sodipodi.sourceforge.net/DTD/sodipodi-0.dtd"
   xmlns:inkscape="http://www.inkscape.org/namespaces/inkscape"
   version="1.1"
   id="Capa_1"
   x="0px"
   y="0px"
   viewBox="0 0 191.99999 191.99999"
   xml:space="preserve"
   sodipodi:docname="stegosaurus-big.svg"
   inkscape:version="0.92.1 r15371"
   width="2in"
   height="2in"><metadata
     id="metadata87"><rdf:RDF><cc:Work
         rdf:about=""><dc:format>image/svg+xml</dc:format><dc:type
           rdf:resource="http://purl.org/dc/dcmitype/StillImage" /><dc:title /></cc:Work></rdf:RDF></metadata><defs
     id="defs85" /><sodipodi:namedview
     pagecolor="#ffffff"
     bordercolor="#666666"
     borderopacity="1"
     objecttolerance="10"
     gridtolerance="10"
     guidetolerance="10"
     inkscape:pageopacity="0"
     inkscape:pageshadow="2"
     inkscape:window-width="1920"
     inkscape:window-height="1019"
     id="namedview83"
     showgrid="false"
     inkscape:zoom="0.71427985"
     inkscape:cx="-231.87171"
     inkscape:cy="70.505777"
     inkscape:window-x="0"
     inkscape:window-y="26"
     inkscape:window-maximized="1"
     inkscape:current-layer="Capa_1"
     units="in" /><g
     id="g50"
     transform="matrix(0.41090613,0,0,0.41090613,8.481e-7,38.75297)"><path
       style="fill:#3b9352"
       d="m 188.202,343.884 -9.688,10.569 5.578,4.404 2.894,14.092 h -56.913 c 0,0 -5.285,-22.9 3.523,-35.23 l -10.569,-30.827 c 0,0 9.688,-20.257 34.35,-24.661 0,0 27.304,3.523 36.111,14.973 z"
       id="path2"
       inkscape:connector-curvature="0" /><path
       style="fill:#3b9352"
       d="m 334.408,301.021 1.466,30.496 c 0.387,8.059 -1.652,16.049 -5.855,22.936 v 0 l 6.738,4.404 2.894,14.092 h -41.879 c 0,0 -6.814,-29.652 -1.53,-67.818 z"
       id="path4"
       inkscape:connector-curvature="0" /><path
       style="fill:#775c38"
       d="m 53.983,338.914 c 0,0 -18,-0.667 -29.333,-21.333 0,0 19.827,12.698 38.58,11.349 z"
       id="path6"
       inkscape:connector-curvature="0" /><path
       style="fill:#775c38"
       d="m 41.046,355.581 c 0,0 -18,-0.667 -29.333,-21.333 0,0 19.827,12.698 38.58,11.349 z"
       id="path8"
       inkscape:connector-curvature="0" /><path
       style="fill:#775c38"
       d="m 200.063,164.722 c 0,0 -9.746,-14.032 -10.913,-33.587 0,0 8.975,-20.095 28.571,-36.825 0,0 23.545,19.047 28.571,36.825 0,0 -0.851,17.395 -10.913,33.587 z"
       id="path10"
       inkscape:connector-curvature="0" /><path
       style="fill:#775c38"
       d="m 252.505,167.597 c 0,0 -0.618,-17.073 8.968,-34.157 0,0 18.411,-12.058 43.94,-15.545 0,0 9.518,28.75 4.139,46.424 0,0 -10.117,14.176 -27.333,22.363 z"
       id="path12"
       inkscape:connector-curvature="0" /><path
       style="fill:#775c38"
       d="m 187.897,169.668 c 0,0 -1.302,-17.035 -12.745,-32.935 0,0 -19.648,-9.916 -45.407,-10.516 0,0 -6.232,29.636 1.097,46.596 0,0 11.644,12.951 29.669,19.154 z"
       id="path14"
       inkscape:connector-curvature="0" /><path
       style="fill:#775c38"
       d="m 130.232,212.117 c 0,0 -4.071,-12.217 -15.348,-21.748 0,0 -16.181,-3.653 -35.125,0.624 0,0 0.87,22.81 9.333,33.868 0,0 10.884,7.338 25.2,8.573 z"
       id="path16"
       inkscape:connector-curvature="0" /><path
       style="fill:#775c38"
       d="m 101.028,257.843 c 0,0 -7.632,-8.556 -20.212,-12.378 0,0 -14.519,2.712 -28.504,12.883 0,0 8.746,18.347 19.562,24.409 0,0 11.486,2.166 23.628,-1.866 z"
       id="path18"
       inkscape:connector-curvature="0" /><path
       style="fill:#46af64"
       d="m 467.26,215.611 c -0.32,3.19 -0.79,5.94 -1.34,8.3 -2.11,9.23 -5.32,12.47 -5.32,12.47 l -65.02,7.91 c 0,0 -14.09,61.35 -32.99,77.57 0,0 -87.42,34.57 -200.21,15.36 0,0 -102.38,29.88 -162.38,28.84 0,0 72.22,-35.71 85.72,-58.23 0,0 3.84,-50.35 10.76,-63.97 0,0 14.42,-20.05 38.4,-42.33 3.93,-3.64 8.12,-7.35 12.54,-11.03 7.77,-6.5 16.28,-12.93 25.39,-18.86 3.6,-2.36 7.29,-4.63 11.08,-6.79 8.31,-4.77 17.04,-9.05 26.13,-12.54 2.6,-1.02 5.24,-1.96 7.9,-2.83 0,0 7.25,-0.11 19.34,2.27 7.22,1.41 16.16,3.71 26.31,7.45 6.66,2.45 13.83,5.52 21.39,9.36 h 0.01 c 5.69,2.89 11.59,6.21 17.64,10.04 2.52,1.6 5.07,3.28 7.64,5.07 5.62,3.88 11.35,8.2 17.13,13.02 0,0 6.97,47.65 20.31,58.08 0,0 22.46,-26.2 27.13,-49.41 1.14,-5.67 5.19,-10.31 10.53,-12.47 l 25.507,-10.416 c 3.931,-1.605 8.367,-1.372 12.106,0.641 12.815,6.898 41.978,23.458 44.297,32.495 z"
       id="path20"
       inkscape:connector-curvature="0" /><path
       style="fill:#389350"
       d="m 347.682,254.775 c 0,0 14.28,12.483 26.024,14.539 0,0 -20.461,-12.562 -21.387,-20.373 z"
       id="path22"
       inkscape:connector-curvature="0" /><polygon
       style="fill:#4d4d4d"
       points="411.872,199.146 425.377,196.504 430.368,200.321 428.313,205.312 410.991,203.844 "
       id="polygon24" /><path
       style="fill:#62cc7e"
       d="m 465.92,223.911 c -2.11,9.23 -5.32,12.47 -5.32,12.47 l -65.02,7.91 c 0,0 -14.09,61.35 -32.99,77.57 0,0 -20.4,8.06 -54.2,14.24 -12.26,2.24 -26.28,4.23 -41.74,5.49 -21.81,1.79 -46.46,2.14 -73.02,-0.29 -10.16,-0.93 -20.59,-2.26 -31.25,-4.08 0,0 -8.06,2.35 -20.98,5.72 -33.13,8.61 -98.23,23.87 -141.4,23.12 55.82,0.48 127.97,-44.5 127.97,-44.5 16.02,-7.45 32.81,-11.92 46.12,-14.56 13.12,-2.61 26.63,-2.05 39.67,0.96 18.98,4.38 44.63,4.94 69.04,3.48 5.23,-0.31 10.41,-0.71 15.45,-1.19 26.03,-2.47 48.46,-6.91 56.52,-10.84 18.94,-9.25 38.31,-63.86 38.31,-63.86 10.13,-13.21 72.84,-11.64 72.84,-11.64 z"
       id="path26"
       inkscape:connector-curvature="0" /><path
       style="fill:#58a366"
       d="m 193.63,341.301 c -10.16,-0.93 -20.59,-2.26 -31.25,-4.08 0,0 -8.06,2.35 -20.98,5.72 -2.95,-0.51 -4.75,-0.86 -4.75,-0.86 l 42.61,-31.1 c 0,0 -0.15,19.55 14.37,30.32 z"
       id="path28"
       inkscape:connector-curvature="0" /><path
       style="fill:#58a366"
       d="m 308.39,336.101 c -12.26,2.24 -26.28,4.23 -41.74,5.49 13,-6.99 16.15,-30.15 16.15,-30.15 l 13.44,-6.31 2.01,5.12 z"
       id="path30"
       inkscape:connector-curvature="0" /><path
       style="fill:#46af64"
       d="m 175.535,343.884 -9.688,10.569 5.578,4.404 4.225,14.092 h -58.245 c 0,0 -5.285,-22.9 3.523,-35.23 l -10.569,-30.827 c 0,0 9.688,-20.257 34.35,-24.661 0,0 27.304,3.523 36.111,14.973 z"
       id="path32"
       inkscape:connector-curvature="0" /><path
       style="fill:#46af64"
       d="m 321.741,301.021 1.466,30.496 c 0.387,8.059 -1.652,16.049 -5.855,22.936 v 0 l 6.738,4.404 3.227,14.092 h -42.212 c 0,0 -6.814,-29.652 -1.529,-67.818 z"
       id="path34"
       inkscape:connector-curvature="0" /><polygon
       style="fill:#389350"
       points="301.317,359.248 324.09,358.857 317.352,354.453 "
       id="polygon36" /><polygon
       style="fill:#389350"
       points="150.983,358.857 171.425,358.857 165.847,354.453 "
       id="polygon38" /><path
       style="fill:#389350"
       d="m 310.25,183.671 c -8.68,14.75 -20.92,39.34 -24.27,65.24 0,0 0.62,-44.91 16.63,-70.31 2.52,1.6 5.07,3.28 7.64,5.07 z"
       id="path40"
       inkscape:connector-curvature="0" /><path
       style="fill:#389350"
       d="m 284.96,168.561 c -30.62,28.35 -39.64,77.69 -39.64,77.69 -2.37,-47.2 10.69,-75.08 18.25,-87.05 6.66,2.45 13.83,5.52 21.39,9.36 z"
       id="path42"
       inkscape:connector-curvature="0" /><path
       style="fill:#389350"
       d="m 220.65,233.581 c -9,-21.36 -10.41,-67.36 -10.63,-81.27 2.6,-1.02 5.24,-1.96 7.9,-2.83 0,0 7.25,-0.11 19.34,2.27 -17.99,34.03 -16.61,81.83 -16.61,81.83 z"
       id="path44"
       inkscape:connector-curvature="0" /><path
       style="fill:#389350"
       d="m 196.65,228.911 c 0,0 -18.42,-23.76 -23.84,-57.27 3.6,-2.36 7.29,-4.63 11.08,-6.79 -0.66,13.67 0.12,40.18 12.76,64.06 z"
       id="path46"
       inkscape:connector-curvature="0" /><path
       style="fill:#389350"
       d="m 164.65,238.251 c -18.21,-12.44 -26.36,-27.83 -29.77,-36.72 3.93,-3.64 8.12,-7.35 12.54,-11.03 3.48,26.64 17.23,47.75 17.23,47.75 z"
       id="path48"
       inkscape:connector-curvature="0" /></g><g
     id="g52"
     transform="translate(0,-275.26004)" /><g
     id="g54"
     transform="translate(0,-275.26004)" /><g
     id="g56"
     transform="translate(0,-275.26004)" /><g
     id="g58"
     transform="translate(0,-275.26004)" /><g
     id="g60"
     transform="translate(0,-275.26004)" /><g
     id="g62"
     transform="translate(0,-275.26004)" /><g
     id="g64"
     transform="translate(0,-275.26004)" /><g
     id="g66"
     transform="translate(0,-275.26004)" /><g
     id="g68"
     transform="translate(0,-275.26004)" /><g
     id="g70"
     transform="translate(0,-275.26004)" /><g
     id="g72"
     transform="translate(0,-275.26004)" /><g
     id="g74"
     transform="translate(0,-275.26004)" /><g
     id="g76"
     transform="translate(0,-275.26004)" /><g
     id="g78"
     transform="translate(0,-275.26004)" /><g
     id="g80"
     transform="translate(0,-275.26004)" /></svg>